# Blender 5.0.0
# www.blender.org
mtllib lowpoly-elektra.mtl
o Elektra
v 4.239321 1.588138 -0.002520
v 5.058661 -0.722003 -0.004813
v 5.421453 -0.237344 -0.472615
v 4.929834 -0.214729 -1.861562
v 5.497504 1.518078 1.249015
v 4.679154 1.695159 1.094067
v 4.407590 -0.642633 1.007911
v 5.164373 -0.673723 0.649739
v 4.866495 -1.008925 -1.300464
v 4.087604 -1.118543 -0.217083
v 3.450202 -0.846619 -1.588564
v 5.149427 0.018813 -0.350766
v 5.138777 0.452269 -0.141966
v 5.738273 0.970758 -0.108097
v 6.068883 1.539034 -0.100430
v 4.179869 -0.337620 1.216004
v 5.083682 0.768581 1.361742
v 4.966319 0.864963 1.369377
v 4.007828 -0.017161 0.148592
v 4.000078 -0.144811 -0.035448
v 3.438626 0.555605 1.057577
v 3.323375 0.671630 0.943489
v 3.288760 -0.234004 -1.226123
v 3.367892 -0.627187 -1.490593
v 5.053310 -0.970079 -1.711768
v 3.984600 0.345837 -1.560466
v 5.034207 1.274054 1.195561
v 3.181678 0.798542 -0.169528
v 3.874266 0.585752 -1.216845
v 4.836673 1.547073 1.065219
v 4.902515 1.268032 1.125125
v 4.935020 1.895551 -0.074745
v 4.486786 1.795628 0.031158
v 3.476632 1.077889 0.616252
v 3.420357 0.939774 0.553752
v 3.276376 0.666810 -0.687599
v 4.079841 0.969508 -0.718466
v 4.253815 0.588411 -0.932060
v 5.106772 -0.968431 -0.683679
v 4.359156 -1.274703 -0.465009
v 4.592482 -1.455368 -0.783481
v 3.894678 -0.172178 -0.214426
v 4.049636 -0.406464 -0.015925
v 3.921884 -0.722270 -0.112717
v 3.592738 -1.130956 -1.451679
v 3.555092 -1.091491 -1.051068
v 4.297471 -1.236065 -1.793472
v 6.020989 1.286506 0.145606
v 5.602137 0.639269 0.338816
v 5.463716 -0.233457 -0.935921
v 5.164278 -0.161832 0.887988
v 5.218258 0.037545 1.035322
v 3.462435 0.632372 0.690024
v 3.307631 0.304346 -0.762187
v 3.416053 -0.021586 -0.523853
v 3.354663 0.144723 -0.559558
v 4.720635 0.180098 -1.604097
v 3.668664 -0.670394 -1.775866
v 3.719081 -0.532904 -1.795701
v 3.958418 -0.161809 -1.713303
v 4.143001 0.959670 1.256705
v 4.721091 1.875767 0.534819
v 4.742416 1.878383 0.848096
v 6.053720 1.625125 0.042659
v 3.885619 1.304324 0.224672
v 3.981653 1.465897 -0.078195
v 3.586140 1.114750 -0.229519
v 5.558361 1.955394 -0.153323
v 5.324877 1.310284 -0.432014
v 4.446222 1.195257 -0.541339
v 4.755589 1.051163 -0.569377
v 3.973428 1.030594 -0.552143
v 3.349075 0.997817 -0.467236
v 3.389694 0.970330 -0.737616
v 3.636712 0.642423 -1.064970
v 3.547694 1.250890 0.367975
v 3.464697 1.126240 0.245432
v 3.429596 1.021564 0.182538
v 3.317236 0.979405 0.050083
v 3.203051 0.929902 0.084014
v 3.978313 1.261309 0.820882
v 4.457949 1.564541 1.179369
v 5.163539 1.998321 0.923343
v 5.384365 1.843633 0.587862
v 5.131804 1.845996 1.171513
v 5.672347 1.904970 0.043501
v 5.668084 1.922257 0.376395
v 5.598008 1.952442 0.564857
v 5.647673 1.864285 0.929232
v 5.591924 1.653313 1.101732
v 5.268268 0.010034 -0.613189
v 4.854231 0.256211 -0.519300
v 4.802678 0.414190 -0.602703
v 4.812833 0.672152 -0.681813
v 4.947374 0.026987 -1.278253
v 3.542217 0.593233 -1.086774
v 3.243925 -0.101213 -1.201141
v 3.303879 0.105853 -1.220139
v 3.358478 0.725574 0.277198
v 3.681871 0.414842 0.363136
v 4.058956 0.719425 1.132620
v 4.146727 0.589270 1.362350
v 5.758699 1.541867 1.095781
v 5.713693 1.162233 0.872966
v 5.792521 0.875280 0.700891
v 5.605282 0.426741 0.592230
v 4.736926 -0.449143 -1.983483
v 4.191461 -0.407052 -1.985987
v 4.115115 -0.564179 -2.000455
v 4.318502 -0.657154 -2.034236
v 4.411354 -0.956827 -1.828106
v 4.599677 -1.129006 -1.872370
v 3.395126 0.019551 -0.755950
v 3.311280 -0.253036 -0.792209
v 3.773748 0.270270 0.425629
v 3.795157 0.170859 0.962702
v 3.954494 0.037563 0.763843
v 4.092574 -0.089711 0.658301
v 4.882266 0.014629 1.297078
v 4.690199 -0.401591 1.195019
v 4.751750 -0.459623 1.127372
v 5.473380 -0.572093 -0.803971
v 5.271448 -0.655485 -0.278688
v 4.434428 -1.323225 -1.814263
v 3.801287 -1.244980 -1.346143
v 3.670143 -1.143849 -0.843427
v 3.488764 -0.675397 -0.685139
v 3.768467 -0.626530 -0.380642
v 3.920789 -1.004409 0.056445
v 4.146575 -1.209270 0.650063
v 4.191788 -0.370920 0.638458
v 4.829481 -0.725127 -0.207809
v 4.878634 -1.255385 -0.490543
v 4.759623 -1.442301 -0.521176
v 4.813976 -1.285913 -0.052562
v 4.722327 -1.235775 0.239973
v 4.714158 -0.894843 0.765671
v 4.813133 -0.807363 0.841900
v 4.877052 -0.639616 0.793619
v 4.892355 -0.993731 0.609258
v 4.558026 -0.971606 0.783607
v 4.626682 -1.135682 0.638024
v 4.392159 -1.088593 0.791062
v 4.646979 -1.172137 0.466600
v 4.348140 -0.928139 0.905671
v 4.547977 -0.818502 0.931929
v 4.660728 -0.615638 1.043026
v 4.587647 -1.354267 -0.120207
v 4.562805 -1.465048 -0.440301
v 4.459470 -1.264402 -0.281215
v 4.460231 -1.277961 0.046871
v 4.842536 -1.229778 -0.224409
v 4.910460 -1.088442 0.144529
v 4.803086 -0.781742 -0.065768
v 5.050328 -0.896122 0.167584
v 5.096445 -1.045885 -1.004362
v 4.774860 -1.411913 -1.068635
v 4.982557 -1.263349 -0.691936
v 4.759057 -0.904950 -0.196545
v 4.158454 -0.459660 0.849391
v 4.259695 -0.785033 0.899199
v 4.196151 -0.532415 1.030617
v 4.236985 -0.664592 0.932391
v 4.131361 -0.645377 0.651517
v 4.250190 -0.739363 0.343074
v 4.004825 -0.900408 0.274413
v 4.026457 -0.899886 0.536750
v 4.003631 -1.027090 0.573535
v 4.126959 -0.996700 0.797828
v 4.070263 -0.657256 0.130175
v 4.167268 -0.548668 0.269471
v 3.508016 -0.479316 -0.621504
v 3.549118 -0.949886 -0.824688
v 3.634335 -0.849296 -0.583245
v 3.710063 -0.977459 -0.462338
v 3.374254 -0.978858 -1.315914
v 3.221994 -0.796174 -1.252441
v 3.362084 -0.964467 -1.062451
v 3.206179 -0.714133 -0.944003
v 4.127873 -1.191781 -1.817805
v 3.899805 -1.127508 -1.703463
v 3.702784 -0.936487 -1.719882
v 4.402611 -1.404529 -1.676037
v 4.111983 -1.324898 -1.661079
v 4.535721 -1.474820 -1.128514
v 4.172096 -1.281149 -1.238302
v 4.315058 -1.288258 -1.015732
v 4.839065 -1.172091 -1.596257
v 4.727131 -1.338016 -1.398983
v 4.752235 -1.227827 -1.796196
v 4.631628 -1.335966 -1.689416
v 5.518288 -0.402676 -0.928002
v 5.394943 -0.682138 -1.148530
v 5.212953 -0.848247 -0.592963
v 5.243594 -0.923482 -1.025946
v 5.127522 -0.809925 -1.368550
v 5.213796 -0.160888 -0.300020
v 5.327784 -0.410538 -0.307412
v 5.315699 0.116576 0.290835
v 5.270373 -0.056252 0.175610
v 5.088815 -0.293898 -0.020567
v 5.064679 -0.599125 0.045949
v 5.957261 1.101665 0.046241
v 5.881565 0.881380 0.233451
v 5.243611 0.617646 -0.112701
v 5.409570 0.568578 0.093060
v 5.176718 -0.014038 -0.222772
v 5.364836 0.204923 0.078255
v 5.221393 0.034483 -0.069080
v 4.920434 -0.232324 1.206440
v 4.840264 -0.347904 0.794818
v 4.955676 -0.319095 0.652779
v 4.753731 -0.639091 0.963099
v 4.605759 -0.098677 1.191882
v 4.404612 -0.388029 1.177507
v 4.620956 0.624876 1.487289
v 4.858837 0.539795 1.507712
v 4.604730 0.206319 1.285419
v 4.309793 -0.082210 1.345320
v 4.928378 0.336724 1.453739
v 3.886894 0.168281 1.162803
v 4.034873 -0.095909 1.027199
v 4.023676 0.004722 0.499184
v 3.699656 0.454471 0.632859
v 3.603899 0.414338 0.840550
v 3.599462 0.330617 1.046326
v 3.748241 0.222100 0.624409
v 3.439654 -0.167978 -0.624802
v 3.602727 -0.229427 -0.507249
v 3.752853 -0.219627 -0.285993
v 3.126061 -0.137713 -0.924756
v 3.153414 -0.268336 -0.851098
v 3.170991 -0.239152 -1.032410
v 3.161246 -0.480604 -0.848568
v 3.286003 0.288317 -0.656697
v 3.201956 -0.079697 -1.033492
v 3.221438 -0.000217 -0.871028
v 4.043353 -0.971778 -1.914347
v 4.772769 -0.698864 -2.012201
v 4.735363 -0.847808 -2.018270
v 5.004310 -0.425847 -1.876024
v 4.341613 0.332480 -1.555918
v 4.209686 0.097367 -1.807334
v 4.683389 -0.025515 -1.767996
v 4.230982 -0.184602 -1.838542
v 4.509404 -0.316060 -1.846469
v 5.834430 1.279428 0.706378
v 5.835522 1.139562 0.397205
v 6.072518 1.531866 0.160555
v 5.649619 1.376231 1.044407
v 5.482893 0.860232 0.994860
v 5.457543 0.707060 1.123948
v 5.683710 0.719998 0.814336
v 5.164522 1.051056 1.270414
v 5.286982 1.208084 1.138665
v 5.200462 0.627352 1.376130
v 4.303569 0.803598 1.385429
v 4.428786 0.910189 1.399380
v 4.375437 0.593573 1.466625
v 3.912504 0.517036 1.270200
v 4.191024 0.449473 1.411157
v 3.952679 0.144509 1.291308
v 4.106354 0.141940 1.404979
v 3.513508 0.605459 1.177882
v 3.648752 0.444940 1.169805
v 3.651699 0.763094 1.205207
v 3.272086 0.845998 0.204217
v 3.423002 0.800175 0.527434
v 3.147305 0.808032 -0.000777
v 3.265010 0.686635 0.018454
v 3.586656 0.397955 -0.255423
v 3.659124 0.306087 -0.113803
v 3.356738 0.496420 -0.439693
v 3.390464 0.661632 -0.303447
v 3.319520 0.585474 -0.851569
v 3.281919 0.278513 -0.887524
v 3.454087 0.511737 -1.067885
v 3.464937 0.324704 -1.235949
v 3.451164 0.017084 -1.495952
v 3.771849 0.019134 -1.685798
v 3.612693 -0.022780 -1.692756
v 4.103691 0.517826 -1.340659
v 3.882976 0.187494 -1.718142
v 3.783604 0.357073 -1.478772
v 3.569106 0.282514 -1.521360
v 3.663245 0.301047 -1.301046
v 4.603096 0.640455 -0.983486
v 4.848092 0.480584 -0.999303
v 4.826624 0.205583 -1.392810
v 4.697630 0.435569 -1.285716
v 4.441325 0.530615 -1.262405
v 4.877495 0.213166 -0.828806
v 5.053966 -0.078707 -1.050490
v 5.012691 -0.035864 -1.561673
v 5.772397 1.178162 -0.166160
v 5.256254 0.690963 -0.307782
v 5.483158 1.086493 -0.270808
v 5.080886 0.917216 -0.432540
v 4.993879 0.111367 -0.442672
v 5.797953 1.945892 0.229660
v 5.893766 1.747132 0.146672
v 5.803522 1.476007 0.315876
v 5.670352 1.657253 0.924189
v 5.691433 1.481249 0.793135
v 5.493298 1.896719 1.023388
v 5.338961 1.964412 1.086122
v 4.660703 1.866995 0.145536
v 4.792665 1.986927 0.194212
v 5.215908 2.073511 0.371496
v 5.139104 2.014366 0.086241
v 4.948938 1.881606 0.894923
v 5.022655 2.017764 0.756883
v 5.387855 1.972345 0.129209
v 4.425730 1.313358 1.198762
v 4.270651 1.090409 1.283947
v 4.642915 1.048138 1.175969
v 4.196824 1.275877 1.248759
v 3.889434 1.144129 1.096738
v 3.613555 1.169485 0.630961
v 3.680364 1.124425 1.023000
v 4.363791 1.634985 0.224560
v 4.156710 1.371726 0.491448
v 4.473979 1.664096 0.942483
v 3.449803 1.029110 0.501712
v 3.507499 1.115369 0.353849
v 3.347397 0.936053 -0.320334
v 3.257852 0.878382 -0.211143
v 3.728783 1.322304 0.067822
v 3.599275 1.143960 -0.023507
v 3.679412 1.251326 0.422448
v 3.579737 1.238697 0.134369
v 3.285202 0.922463 -0.737634
v 3.283807 0.769829 -0.572998
v 3.267318 0.704394 -0.803905
v 3.623955 0.993198 -0.527542
v 3.593367 0.940914 -0.731053
v 3.819240 0.765698 -0.936652
v 4.314207 1.533943 -0.299747
v 3.778382 1.143235 -0.231430
v 4.333026 1.306131 -0.427160
v 4.115663 1.205308 -0.471209
v 4.405107 0.963442 -0.731460
v 4.482367 0.856119 -0.748584
v 4.734643 0.872657 -0.637145
v 4.741326 1.381925 -0.432597
v 4.933135 1.451449 -0.319647
v 5.148573 1.660868 -0.403207
v 4.916428 1.225645 -0.374105
v 4.448661 1.701112 -0.173226
v 4.619447 1.695844 -0.240930
v 4.775928 1.647180 -0.194321
v 5.054583 1.883517 -0.221180
v 4.888578 1.563052 -0.241061
v 4.655680 1.508735 -0.365570
v 5.733339 1.708631 -0.018425
v 5.476512 1.731633 -0.349200
v 5.545731 1.441793 -0.052011
v 5.404547 1.265952 -0.351532
v 4.020203 0.802384 -0.818188
v 4.049667 0.609655 -0.965499
v 3.260134 0.867683 -0.583075
v 3.352388 0.826006 -0.346042
v 3.455237 1.040518 0.899003
v 3.353802 0.873007 1.066859
v 3.297472 0.866888 0.926565
v 3.723407 0.913585 1.091573
v 4.928389 1.695874 1.093269
v 5.325794 1.689272 1.116052
v 5.127331 1.492877 1.080839
v 5.457595 -0.320043 -1.262788
v 5.231049 -0.196343 -1.376896
v 5.298294 -0.574352 -1.468858
v 5.335393 -0.368512 -1.399496
v 5.284575 -0.321870 -1.574561
v 5.082446 -0.590516 -1.834936
v 3.567541 -0.252079 -1.672058
v 3.477596 -0.496370 -1.616933
v 3.434010 -0.239659 -1.488971
v 3.442795 -0.462532 -1.352226
v 3.553105 0.117557 -0.322638
v 3.816812 0.083019 -0.188310
v 4.006774 -0.058231 1.195475
v 4.082458 -0.179167 1.261338
v 4.112266 -0.025846 1.309489
v 5.415623 0.468227 1.164951
v 5.316063 -0.055835 0.751509
v 5.410807 0.146991 0.709349
v 5.508397 0.264458 0.703547
v 5.203249 -0.399278 0.628228
v 5.321229 -0.304886 0.618131
v 4.783447 -1.026394 -1.971438
v 3.164654 -0.353281 -1.213195
v 3.209222 -0.612543 -1.366305
v 3.123927 -0.593056 -1.130009
v 3.337377 -0.799329 -1.418234
v 3.187946 -0.695458 -1.131471
v 4.173618 -0.274012 0.305268
v 4.082775 -0.375565 1.129951
v 5.298763 -0.254958 0.349456
v 5.233088 -0.603286 0.445079
v 5.071930 -0.589617 0.231385
v 5.190123 -0.574689 0.596341
v 3.874231 -1.273457 -0.690243
v 3.974368 -1.157176 -0.466220
v 3.871603 -1.332573 -1.003377
v 3.777823 -1.132069 -0.357817
v 3.862635 -1.135460 -0.157138
v 3.766712 -1.088308 -0.193289
v 3.980583 -1.076608 0.023941
v 4.047630 -1.239222 0.239545
v 4.002762 -1.190137 0.422860
v 4.144252 -1.218636 0.023556
v 4.278288 -1.241796 0.346726
v 5.072752 -0.854260 0.388108
v 5.024961 -0.785197 0.619594
v 4.885932 -1.028643 0.411610
v 4.294613 -1.267004 0.558386
v 4.465029 -1.211108 0.530030
v 4.344828 -1.237862 0.153808
v 4.540275 -1.139191 0.304550
vn 0.9823 0.1872 -0.0085
vn -0.8317 0.5186 -0.1986
vn -0.1371 0.9360 0.3241
vn 0.7217 0.6208 0.3061
vn -0.9324 0.2457 -0.2650
vn -0.9431 -0.3296 -0.0444
vn 0.2031 -0.0755 0.9762
vn 0.7685 -0.6341 -0.0859
vn 0.1562 -0.9864 -0.0504
vn 0.0659 -0.6969 0.7142
vn 0.3688 -0.5363 0.7592
vn 0.4777 -0.8461 0.2365
vn 0.5603 -0.3446 0.7531
vn 0.8007 -0.1373 0.5831
vn 0.4974 -0.3555 0.7914
vn 0.4538 -0.8191 0.3508
vn 0.5323 -0.8364 0.1305
vn 0.4540 0.0823 0.8872
vn 0.4538 0.3286 0.8283
vn 0.5125 -0.7527 0.4133
vn 0.4089 -0.6026 0.6854
vn 0.2704 -0.6607 0.7003
vn 0.3865 -0.6285 0.6750
vn 0.3513 -0.5349 0.7685
vn 0.3684 -0.4713 0.8013
vn -0.1541 -0.6019 0.7835
vn 0.0541 -0.8032 0.5932
vn 0.3446 -0.8091 0.4760
vn 0.5206 -0.7077 0.4775
vn -0.1504 -0.6906 0.7074
vn 0.2802 -0.9317 0.2313
vn -0.9622 -0.1132 -0.2477
vn -0.1618 -0.4872 0.8582
vn -0.3806 -0.1943 0.9041
vn -0.4275 -0.2246 0.8757
vn -0.0761 -0.4461 0.8918
vn -0.0562 -0.5540 0.8306
vn -0.2099 -0.5710 0.7936
vn 0.0687 -0.3490 0.9346
vn 0.1072 -0.9941 -0.0188
vn 0.1963 -0.9367 0.2898
vn 0.2310 -0.9248 0.3021
vn -0.7547 -0.5997 0.2661
vn -0.6530 -0.6476 0.3927
vn 0.2175 -0.9484 0.2307
vn -0.5453 -0.8376 -0.0334
vn -0.1048 -0.9324 0.3459
vn 0.1762 -0.9835 -0.0411
vn -0.1866 -0.9820 0.0306
vn 0.7405 -0.5376 0.4034
vn 0.9651 0.2388 0.1079
vn 0.8197 -0.5488 0.1640
vn 0.9193 -0.3928 0.0245
vn 0.9265 0.2613 -0.2707
vn 0.8967 -0.4426 0.0045
vn 0.9314 -0.3630 0.0284
vn 0.9248 0.0670 -0.3745
vn 0.5670 -0.3215 -0.7584
vn 0.6798 -0.6571 0.3256
vn 0.1330 -0.9819 -0.1351
vn 0.2857 -0.9073 -0.3085
vn 0.3167 -0.6750 -0.6664
vn 0.6683 -0.7105 0.2205
vn 0.5416 -0.7258 -0.4241
vn 0.4623 -0.7617 -0.4541
vn 0.6450 -0.7473 0.1597
vn 0.6623 -0.4810 -0.5744
vn 0.9190 -0.3889 0.0643
vn 0.5461 -0.7556 0.3618
vn 0.7472 -0.3308 0.5764
vn 0.7551 -0.6342 -0.1662
vn 0.6132 -0.7895 -0.0268
vn 0.2149 -0.8131 0.5410
vn 0.7683 -0.2644 0.5829
vn 0.8842 -0.0839 0.4596
vn -0.9752 0.2116 -0.0651
vn -0.8569 0.2791 0.4334
vn -0.8403 0.3159 0.4406
vn -0.7550 -0.3027 0.5817
vn -0.9094 0.2140 0.3566
vn -0.8252 -0.5622 -0.0541
vn -0.9183 -0.2181 0.3304
vn -0.9400 -0.3356 0.0608
vn -0.9981 0.0154 0.0589
vn -0.9763 0.2132 -0.0378
vn -0.8691 -0.4538 -0.1966
vn -0.7786 -0.0994 0.6197
vn -0.7429 0.5046 -0.4399
vn -0.5336 0.5331 0.6566
vn -0.5568 0.8295 0.0443
vn -0.8129 0.4430 0.3780
vn -0.9439 0.1725 0.2816
vn -0.9768 0.1985 0.0802
vn -0.9443 0.1553 0.2900
vn -1.0000 0.0065 -0.0012
vn -0.7615 -0.4377 0.4780
vn -0.7902 -0.3973 0.4667
vn -0.8470 -0.1218 0.5174
vn -0.9028 -0.1407 0.4065
vn -0.8588 0.2033 0.4702
vn -0.9416 0.1083 0.3188
vn -0.7966 -0.0600 0.6015
vn -0.8577 0.2668 0.4395
vn -0.5347 -0.2129 0.8178
vn -0.6883 -0.1619 0.7071
vn -0.7202 -0.1765 0.6709
vn -0.7213 -0.1831 0.6680
vn -0.8273 0.0581 0.5588
vn -0.8634 0.0264 0.5038
vn -0.3785 -0.2235 0.8982
vn -0.8964 0.3103 0.3166
vn -0.8275 0.1708 0.5349
vn -0.7907 -0.0043 0.6122
vn -0.6007 -0.6155 0.5102
vn -0.5102 -0.7352 0.4464
vn -0.5886 -0.4003 0.7024
vn -0.5604 -0.4699 0.6820
vn -0.7969 -0.4037 0.4495
vn -0.7937 -0.5249 0.3074
vn -0.8407 0.0139 0.5413
vn -0.9056 -0.1677 0.3895
vn -0.7922 -0.5245 0.3120
vn -0.9245 -0.3792 0.0384
vn -0.6994 -0.7137 -0.0389
vn -0.6759 -0.6468 0.3532
vn -0.8947 -0.4408 -0.0720
vn -0.6819 -0.5653 -0.4641
vn -0.8094 -0.4074 -0.4230
vn -0.7406 -0.4411 -0.5070
vn -0.7683 -0.6401 -0.0005
vn -0.5629 -0.8263 0.0199
vn -0.8462 -0.5017 0.1795
vn -0.8424 -0.5381 0.0283
vn -0.5508 -0.8341 0.0304
vn -0.4855 -0.8729 0.0489
vn -0.2155 -0.1071 -0.9706
vn 0.0295 -0.3921 -0.9194
vn -0.1033 -0.7529 -0.6500
vn -0.4680 -0.4997 -0.7289
vn -0.4801 -0.6440 -0.5956
vn -0.4916 -0.5641 -0.6635
vn -0.1310 -0.9840 0.1205
vn -0.5825 -0.7108 -0.3943
vn -0.2941 -0.8810 -0.3707
vn -0.5117 -0.5821 -0.6320
vn -0.4945 -0.8683 0.0391
vn -0.5296 -0.5685 -0.6295
vn 0.2313 -0.8609 -0.4532
vn 0.2926 -0.9387 -0.1823
vn -0.2490 -0.8087 -0.5330
vn -0.3887 -0.4146 -0.8228
vn 0.2717 -0.9440 -0.1872
vn -0.2553 -0.9573 0.1354
vn -0.4703 -0.8825 0.0011
vn -0.5180 -0.7983 0.3072
vn 0.2513 -0.9678 0.0132
vn -0.5955 -0.7906 0.1425
vn -0.0239 -0.9698 -0.2429
vn 0.6269 -0.7491 0.2140
vn 0.7339 -0.6213 0.2747
vn 0.6610 -0.7462 -0.0790
vn 0.9216 -0.3284 -0.2066
vn 0.8933 -0.4234 0.1507
vn 0.7384 -0.6604 -0.1365
vn 0.5575 -0.8084 -0.1890
vn -0.0605 -0.6663 -0.7432
vn 0.7380 -0.6280 -0.2471
vn 0.4146 -0.5660 -0.7126
vn 0.9467 0.3095 0.0890
vn 0.9681 -0.0837 0.2362
vn 0.9383 -0.3283 -0.1087
vn 0.9280 -0.1749 0.3290
vn 0.7863 -0.5810 0.2100
vn 0.7434 -0.6674 0.0439
vn 0.6516 -0.6261 -0.4283
vn 0.7345 -0.6776 0.0380
vn 0.8697 -0.3952 0.2958
vn 0.6938 0.7193 0.0367
vn 0.5530 -0.2743 0.7868
vn 0.6726 0.2869 0.6821
vn 0.9253 -0.1844 0.3313
vn 0.9468 -0.3087 0.0906
vn 0.8431 -0.4268 -0.3271
vn 0.9104 -0.3885 -0.1420
vn 0.9106 0.0125 0.4132
vn 0.9094 0.0187 0.4156
vn 0.6853 0.2931 0.6667
vn 0.8616 -0.3950 -0.3189
vn 0.9638 -0.0839 -0.2533
vn 0.8484 -0.2747 -0.4525
vn 0.9957 -0.0863 -0.0345
vn 0.8267 -0.1258 0.5484
vn 0.7914 -0.2661 0.5503
vn 0.9461 -0.1824 -0.2675
vn 0.8802 0.1136 -0.4608
vn 0.9671 -0.2537 -0.0204
vn 0.6742 -0.3837 -0.6311
vn 0.8388 -0.1770 0.5149
vn 0.9455 -0.3256 -0.0008
vn 0.5766 -0.8059 -0.1345
vn 0.5746 -0.6356 -0.5156
vn 0.5414 -0.6073 -0.5815
vn 0.6956 -0.3278 -0.6392
vn 0.5845 -0.3577 0.7283
vn 0.5845 -0.7767 -0.2346
vn 0.5981 0.1838 -0.7801
vn 0.9774 0.1107 -0.1800
vn 0.8939 -0.4413 -0.0784
vn 0.7951 -0.0733 -0.6020
vn 0.7519 -0.0658 -0.6560
vn 0.9429 -0.2754 -0.1871
vn 0.6116 -0.1876 0.7686
vn 0.7284 -0.5237 0.4418
vn 0.4576 -0.8753 0.1566
vn 0.3506 -0.5290 0.7728
vn 0.8010 -0.5986 0.0121
vn 0.4482 -0.8741 0.1869
vn 0.4228 -0.6093 0.6708
vn 0.9648 -0.1716 0.1991
vn 0.4778 0.2525 0.8414
vn 0.8048 0.0991 0.5853
vn 0.7633 0.0936 0.6392
vn 0.6278 -0.4113 0.6608
vn -0.3539 -0.2753 0.8938
vn -0.1723 -0.4108 0.8953
vn -0.1969 -0.3645 0.9102
vn -0.0474 -0.0029 0.9989
vn 0.4325 -0.2630 0.8624
vn -0.0615 -0.0068 0.9981
vn 0.4192 -0.3334 0.8444
vn -0.0748 -0.7895 0.6092
vn 0.0257 -0.4870 0.8730
vn 0.1003 0.8007 0.5906
vn -0.1101 0.2242 0.9683
vn 0.0811 0.3430 0.9358
vn 0.0549 0.3755 0.9252
vn 0.2967 0.2891 0.9102
vn -0.0843 0.0035 0.9964
vn -0.1273 -0.4812 0.8673
vn -0.1690 -0.1582 0.9728
vn 0.3783 -0.1990 0.9040
vn -0.3203 -0.3443 0.8826
vn -0.4668 -0.8608 0.2029
vn -0.8691 -0.4944 0.0147
vn -0.7222 -0.6804 -0.1244
vn -0.9493 -0.2067 -0.2370
vn -0.9543 -0.2324 -0.1877
vn -0.9354 -0.3193 -0.1517
vn -0.6580 -0.7526 -0.0227
vn -0.6378 -0.7669 -0.0716
vn -0.7149 -0.6919 -0.1010
vn -0.6678 -0.6992 -0.2551
vn -0.8577 -0.5094 0.0691
vn -0.7802 -0.5201 -0.3475
vn -0.7026 -0.6522 -0.2845
vn -0.5682 -0.8079 0.1562
vn -0.6082 -0.6788 -0.4116
vn -0.7948 -0.5560 -0.2433
vn -0.8612 -0.4916 0.1290
vn -0.9656 -0.1957 -0.1713
vn -0.8824 -0.1685 -0.4394
vn -0.7904 -0.6124 0.0169
vn -0.6765 -0.6769 -0.2900
vn -0.8227 0.1814 0.5387
vn -0.9793 -0.1949 0.0538
vn -0.9395 -0.3416 0.0242
vn -0.6211 -0.5103 0.5948
vn -0.6712 -0.5645 0.4804
vn -0.6649 -0.3206 0.6746
vn -0.3494 -0.0017 0.9370
vn -0.5418 0.1525 0.8266
vn -0.7438 -0.1564 0.6498
vn -0.6109 -0.1259 0.7817
vn -0.2284 -0.8416 0.4894
vn -0.5561 0.0608 0.8289
vn -0.7071 0.2291 0.6689
vn -0.3586 0.1593 0.9198
vn -0.7640 0.6110 -0.2073
vn -0.8476 0.1612 -0.5056
vn -0.9513 -0.2763 -0.1367
vn -0.9940 -0.0379 -0.1025
vn -0.9392 -0.2796 -0.1992
vn -0.8453 0.1607 -0.5096
vn -0.9786 0.0987 0.1804
vn -0.9775 -0.0417 -0.2068
vn -0.9309 0.2953 -0.2148
vn -0.9743 0.1485 0.1693
vn -0.9599 0.2794 -0.0216
vn -0.9375 0.3168 -0.1441
vn -0.8890 -0.1277 0.4397
vn -0.3057 0.5632 -0.7677
vn -0.4343 0.4530 -0.7786
vn -0.4225 0.2845 -0.8606
vn -0.2331 -0.1615 -0.9589
vn -0.4244 -0.1150 -0.8981
vn -0.4565 0.0392 -0.8889
vn 0.2161 -0.5070 -0.8344
vn -0.2460 -0.0199 -0.9691
vn 0.2311 -0.2120 -0.9495
vn -0.5000 -0.2392 -0.8323
vn 0.2181 0.5120 -0.8309
vn -0.1000 0.1393 -0.9852
vn 0.0620 0.7654 -0.6405
vn 0.0676 0.2220 -0.9727
vn 0.0135 0.1162 -0.9931
vn 0.0510 0.0279 -0.9983
vn -0.2452 -0.5998 -0.7616
vn 0.3522 0.1871 -0.9170
vn 0.3565 0.1571 -0.9210
vn -0.3924 -0.3307 -0.8583
vn -0.3833 -0.1867 -0.9045
vn 0.2306 0.7684 -0.5970
vn 0.2322 0.7668 -0.5985
vn 0.1417 0.6012 -0.7864
vn 0.0358 0.7205 -0.6925
vn 0.2285 0.6484 -0.7262
vn 0.1125 0.1177 -0.9867
vn 0.5513 0.6406 -0.5344
vn 0.1603 0.5973 -0.7858
vn 0.0751 0.2178 -0.9731
vn 0.0107 0.4544 -0.8907
vn -0.2857 0.4056 -0.8683
vn 0.3883 0.5412 0.7459
vn 0.5432 0.7991 0.2577
vn 0.9143 0.3066 -0.2646
vn 0.9698 0.1207 0.2118
vn 0.8438 -0.5305 -0.0813
vn 0.7116 0.2169 0.6683
vn 0.8378 0.5114 0.1911
vn 0.8364 -0.0941 0.5400
vn 0.9957 0.0861 -0.0354
vn 0.9933 -0.1037 0.0504
vn 0.8052 -0.5918 -0.0377
vn 0.8945 -0.3922 -0.2147
vn 0.7155 0.2277 0.6604
vn 0.5183 -0.1600 0.8401
vn 0.5216 0.5016 0.6902
vn 0.4652 -0.5270 0.7112
vn 0.4399 -0.5511 0.7091
vn 0.7169 -0.2924 0.6329
vn 0.7223 0.0168 0.6914
vn 0.6665 0.0685 0.7423
vn 0.3306 -0.1955 0.9233
vn 0.6754 -0.2339 0.6994
vn 0.5224 0.4973 0.6927
vn 0.7495 0.3497 0.5621
vn 0.6864 0.0490 0.7255
vn 0.7003 -0.0004 0.7138
vn 0.7432 -0.4139 0.5256
vn 0.9604 -0.1259 0.2487
vn 0.8958 -0.3945 0.2046
vn -0.2371 0.4758 0.8470
vn 0.3822 -0.1129 0.9172
vn -0.4444 0.4118 0.7956
vn 0.1095 0.3732 0.9212
vn 0.2908 0.3443 0.8927
vn 0.2515 0.2318 0.9397
vn 0.3075 0.4594 0.8333
vn -0.2360 0.0646 0.9696
vn -0.5566 0.0837 0.8266
vn 0.2695 0.3156 0.9098
vn -0.3099 -0.3485 0.8846
vn -0.4378 0.7002 0.5640
vn -0.6918 -0.1253 0.7111
vn -0.7093 0.4617 0.5326
vn -0.3759 0.3281 0.8667
vn -0.4069 0.2121 0.8885
vn -0.4093 0.2038 0.8894
vn -0.4108 0.1818 0.8934
vn -0.3128 0.2475 0.9170
vn -0.2203 0.0241 0.9751
vn -0.7142 -0.6228 0.3194
vn 0.2640 0.4980 0.8260
vn 0.1657 0.4696 0.8672
vn -0.2745 -0.2776 0.9206
vn -0.4083 0.1829 0.8944
vn -0.2793 -0.2638 0.9233
vn -0.8932 -0.0712 0.4441
vn -0.4512 0.0019 0.8924
vn -0.5868 0.1455 0.7966
vn -0.9739 0.0241 -0.2258
vn -0.9294 -0.1524 -0.3361
vn -0.9229 -0.0900 0.3745
vn -0.6847 -0.7273 -0.0480
vn -0.7864 -0.2319 0.5725
vn -0.7873 -0.2133 0.5785
vn -0.5943 -0.4579 0.6612
vn -0.5996 -0.5352 0.5950
vn -0.3659 0.1619 0.9165
vn -0.1207 0.6342 0.7637
vn -0.2384 -0.6633 0.7093
vn -0.6585 -0.5586 0.5043
vn -0.8471 -0.3870 0.3642
vn -0.8339 -0.3302 0.4423
vn -0.9609 -0.0688 0.2683
vn -0.6945 -0.7194 0.0125
vn -0.9691 0.0112 0.2465
vn -0.6719 -0.3847 0.6328
vn -0.6180 -0.7650 -0.1814
vn -0.7057 -0.7008 -0.1043
vn -0.7148 -0.6613 -0.2272
vn -0.8043 -0.5936 0.0265
vn -0.5977 -0.7324 0.3261
vn -0.7060 -0.6824 0.1893
vn -0.8941 -0.1397 0.4254
vn -0.6486 -0.1032 0.7541
vn -0.9511 0.0010 0.3090
vn -0.9660 -0.1579 0.2046
vn -0.9377 -0.0861 0.3365
vn -0.9387 -0.1353 0.3171
vn -0.6530 -0.3281 -0.6826
vn -0.7708 0.5432 -0.3329
vn -0.6205 0.5389 -0.5697
vn -0.7248 -0.0425 -0.6877
vn -0.8563 0.3168 -0.4078
vn -0.8112 0.1651 -0.5609
vn -0.9219 -0.3838 -0.0522
vn -0.9706 -0.0347 -0.2382
vn -0.5049 0.3646 -0.7824
vn -0.1991 -0.0565 -0.9784
vn -0.1644 0.6540 -0.7384
vn -0.3393 0.9384 0.0660
vn 0.0796 0.9899 -0.1173
vn -0.8628 0.3483 -0.3664
vn -0.7015 0.4781 -0.5285
vn -0.4896 0.1584 -0.8574
vn -0.5049 0.1428 -0.8513
vn -0.2221 0.9040 -0.3654
vn -0.8751 0.0454 -0.4819
vn -0.7821 0.1715 -0.5990
vn 0.1039 0.8076 -0.5805
vn -0.4117 0.0695 -0.9087
vn 0.0023 0.9853 -0.1711
vn 0.0371 0.7772 -0.6282
vn 0.1711 0.9624 -0.2109
vn -0.1760 0.8193 -0.5457
vn -0.1132 0.7675 -0.6309
vn 0.0010 0.7053 -0.7089
vn -0.2816 -0.0741 -0.9567
vn -0.1743 0.7487 -0.6396
vn -0.1762 0.8189 -0.5462
vn -0.7243 0.6237 -0.2939
vn -0.3750 0.5074 -0.7759
vn -0.1021 0.5604 -0.8219
vn 0.4661 0.3616 -0.8074
vn 0.9720 0.2327 -0.0325
vn 0.7294 0.4069 -0.5499
vn 0.4785 0.7743 -0.4141
vn 0.8676 0.3841 -0.3157
vn 0.6752 0.5868 -0.4469
vn 0.4882 0.7857 -0.3799
vn 0.8097 0.5841 0.0571
vn 0.2656 0.8346 -0.4827
vn -0.1805 0.9464 -0.2680
vn 0.5850 0.7165 -0.3799
vn 0.6947 0.5847 -0.4190
vn 0.4194 0.3799 -0.8245
vn 0.7636 -0.2166 -0.6082
vn 0.9600 0.0469 0.2760
vn 0.9462 0.3226 0.0263
vn 0.9884 0.1038 0.1107
vn 0.7298 0.6825 -0.0401
vn 0.8175 0.5677 -0.0967
vn 0.8103 0.5752 -0.1123
vn 0.1760 0.9443 -0.2779
vn 0.7006 0.7135 0.0032
vn 0.5803 0.8142 0.0214
vn 0.6983 0.6746 -0.2393
vn 0.6052 0.5989 -0.5244
vn 0.5473 -0.3079 -0.7782
vn -0.1413 0.2886 -0.9470
vn 0.5114 -0.3087 -0.8020
vn 0.3731 -0.1281 -0.9189
vn 0.5628 -0.7851 -0.2586
vn 0.1506 0.4990 -0.8534
vn 0.8562 0.1531 -0.4935
vn 0.4257 -0.1610 -0.8904
vn 0.4375 -0.2025 -0.8761
vn 0.6225 0.3520 -0.6990
vn 0.4304 0.8874 0.1652
vn 0.6795 0.3012 -0.6690
vn 0.8104 -0.4467 -0.3791
vn 0.7590 -0.0926 -0.6445
vn 0.6152 -0.7503 -0.2421
vn 0.5563 -0.0267 -0.8305
vn -0.2369 0.9701 -0.0534
vn 0.6171 0.7799 0.1046
vn 0.7403 0.0780 0.6678
vn 0.7586 0.1441 0.6354
vn 0.9930 0.1076 0.0479
vn 0.9952 0.0899 0.0394
vn 0.9416 0.2562 0.2183
vn 0.9103 0.0899 0.4041
vn 0.4000 0.3857 0.8314
vn 0.7033 0.6078 0.3686
vn -0.4670 0.7414 0.4819
vn 0.2960 0.9191 0.2602
vn -0.3034 0.9514 -0.0533
vn -0.4581 0.8352 -0.3041
vn -0.4534 0.8913 0.0048
vn 0.3082 0.9334 0.1838
vn 0.3533 0.9161 -0.1899
vn 0.3266 0.9249 -0.1944
vn 0.5324 0.4471 0.7188
vn -0.1414 0.8110 0.5677
vn -0.4765 0.7751 0.4148
vn -0.2804 0.8336 0.4758
vn 0.3785 0.0052 0.9256
vn 0.3618 0.1208 0.9244
vn 0.0963 0.3401 0.9354
vn 0.1313 0.6869 0.7148
vn -0.5306 0.7866 0.3159
vn -0.6014 0.7954 0.0754
vn -0.6879 0.7202 0.0905
vn -0.4754 0.7252 -0.4980
vn -0.1297 0.9773 -0.1677
vn -0.0139 0.9999 -0.0074
vn -0.6051 0.7042 0.3714
vn -0.5172 0.8397 0.1654
vn -0.2139 0.9763 0.0339
vn 0.2032 0.9464 -0.2510
vn -0.0205 0.9909 0.1331
vn 0.7181 0.6772 0.1604
vn 0.6909 0.6947 0.2002
vn -0.3792 0.8619 0.3366
vn 0.2054 0.0491 0.9774
vn 0.3451 0.0282 0.9381
vn 0.2610 0.0903 0.9611
vn 0.1678 0.2478 0.9542
vn 0.1707 0.2452 0.9543
vn -0.4414 -0.0055 0.8973
vn 0.1565 0.0434 0.9867
vn -0.4066 0.2118 0.8887
vn 0.2916 0.1577 0.9435
vn -0.3782 0.2524 0.8906
vn 0.2748 0.6779 0.6819
vn -0.1606 0.9824 0.0958
vn -0.6466 0.7179 0.2579
vn -0.6182 0.7827 -0.0725
vn -0.6645 0.6771 0.3163
vn -0.4716 0.8560 0.2117
vn -0.3538 0.9033 0.2428
vn -0.2023 0.9231 0.3270
vn -0.3193 0.9338 0.1617
vn -0.3429 0.2265 0.9117
vn -0.5631 0.8143 0.1406
vn -0.6453 0.7369 0.2017
vn -0.5334 0.7714 0.3471
vn -0.6611 0.7231 0.2002
vn -0.6673 0.7438 0.0392
vn -0.6344 0.7711 -0.0536
vn -0.3505 0.9287 0.1215
vn -0.4523 0.7670 0.4550
vn -0.9354 0.2974 -0.1915
vn -0.9067 0.4204 0.0334
vn -0.9238 0.0855 0.3733
vn -0.8006 0.5981 0.0365
vn -0.1485 0.7688 0.6220
vn -0.6708 0.6466 0.3632
vn -0.7421 0.6696 0.0311
vn -0.8661 0.4320 0.2515
vn -0.8565 0.0333 0.5151
vn -0.5781 0.8122 -0.0783
vn -0.9444 0.2952 -0.1449
vn -0.5154 0.8083 0.2845
vn -0.8053 0.4795 -0.3486
vn -0.0877 0.8493 -0.5205
vn -0.8182 0.5738 0.0362
vn -0.2098 0.9690 -0.1305
vn -0.6418 0.7095 0.2910
vn -0.4443 0.8649 -0.2335
vn -0.6514 0.7457 -0.1403
vn -0.7621 0.5989 -0.2460
vn -0.6256 0.6194 -0.4743
vn -0.4494 0.8882 0.0953
vn -0.3613 0.8141 0.4546
vn -0.1466 0.9807 -0.1297
vn -0.5665 0.6624 -0.4903
vn -0.0736 0.9798 0.1859
vn -0.5821 0.6634 -0.4701
vn -0.4462 0.8874 0.1155
vn 0.0173 0.9986 -0.0498
vn -0.4115 0.8984 -0.1532
vn -0.9373 -0.2516 -0.2412
vn -0.2633 0.5750 -0.7746
vn -0.9965 0.0658 0.0525
vn -0.9972 -0.0106 0.0742
vn -0.1689 0.6520 -0.7392
vn -0.6345 0.2719 -0.7235
vn -0.0057 0.9948 -0.1020
vn 0.1462 0.9526 -0.2667
vn -0.1195 0.9658 -0.2301
vn 0.0875 0.8036 -0.5887
vn -0.2598 0.8407 -0.4750
vn 0.1290 0.7476 -0.6515
vn -0.4406 0.8961 0.0527
vn -0.4707 0.7410 -0.4789
vn -0.5216 0.6113 -0.5952
vn -0.4092 0.4194 -0.8104
vn -0.3586 0.8926 -0.2734
vn -0.1388 0.9107 -0.3891
vn -0.0177 0.4321 -0.9017
vn -0.5094 0.6667 -0.5440
vn -0.1252 0.9098 -0.3957
vn -0.0688 0.9207 -0.3842
vn -0.0676 0.6815 -0.7287
vn -0.0190 0.6360 -0.7714
vn 0.0956 0.3839 -0.9184
vn 0.1700 0.5270 -0.8327
vn 0.5183 0.4855 -0.7040
vn 0.2963 0.3548 -0.8868
vn 0.3705 0.2914 -0.8820
vn -0.2048 0.6663 -0.7170
vn 0.6636 0.1962 -0.7219
vn 0.2139 0.7719 -0.5987
vn -0.5869 0.3494 -0.7304
vn -0.0895 0.4175 -0.9043
vn -0.1296 0.6441 -0.7539
vn 0.2712 0.5865 -0.7632
vn 0.2198 0.6188 -0.7542
vn 0.3688 0.3687 -0.8532
vn -0.5834 0.2989 -0.7552
vn 0.7147 0.1136 -0.6902
vn 0.0131 0.6362 -0.7714
vn -0.5414 0.2348 -0.8074
vn -0.0197 0.6626 -0.7487
vn 0.1300 0.1460 -0.9807
vn -0.1423 0.0097 -0.9898
vn -0.1601 0.1007 -0.9820
vn -0.1169 0.9126 -0.3917
vn -0.1976 0.8916 -0.4075
vn -0.6047 0.7599 -0.2386
vn -0.1291 0.9090 -0.3963
vn -0.5301 0.6187 -0.5799
vn 0.3798 0.8302 -0.4082
vn -0.2436 0.7022 -0.6690
vn -0.2856 0.9076 -0.3078
vn -0.6947 0.3971 -0.5998
vn -0.0334 0.4508 -0.8920
vn 0.3917 0.5614 -0.7289
vn -0.1219 0.5338 -0.8368
vn -0.1325 0.4755 -0.8697
vn 0.1602 0.9864 0.0375
vn -0.0820 0.9249 -0.3712
vn 0.2164 0.6794 -0.7012
vn 0.2571 0.9615 0.0974
vn 0.7154 0.4024 -0.5712
vn 0.8386 0.3828 -0.3876
vn 0.7764 0.2297 -0.5869
vn 0.5415 0.5326 -0.6504
vn 0.7019 -0.4212 -0.5743
vn 0.3289 0.8242 -0.4610
vn 0.2985 0.8237 -0.4821
vn 0.9249 -0.1412 -0.3531
vn 0.6786 -0.1012 -0.7275
vn -0.1292 0.2127 -0.9685
vn 0.5631 -0.3485 -0.7493
vn -0.3932 0.7527 -0.5280
vn -0.0245 0.5187 -0.8546
vn 0.4291 0.3450 -0.8348
vn 0.0016 0.4712 -0.8820
vn 0.1894 0.6144 -0.7659
vn 0.3190 0.6058 -0.7288
vn -0.0320 0.7431 -0.6684
vn 0.1361 0.9666 -0.2170
vn 0.4768 0.7792 -0.4068
vn -0.1605 0.8159 -0.5555
vn -0.8452 0.5319 0.0514
vn -0.8843 0.2577 0.3895
vn -0.9989 -0.0388 -0.0277
vn -0.9257 -0.1903 0.3268
vn -0.7952 0.1035 -0.5975
vn -0.7013 0.3434 -0.6248
vn -0.5438 0.7535 0.3694
vn -0.5597 0.8260 0.0668
vn -0.4269 0.8872 0.1747
vn -0.9345 0.3490 0.0703
vn -0.9229 0.3846 -0.0190
vn -0.8762 0.4792 -0.0513
vn -0.3098 0.9472 0.0831
vn -0.1254 0.7391 0.6618
vn -0.5224 0.1654 0.8365
vn 0.0037 -0.1874 0.9823
vn 0.0001 0.7299 0.6835
vn -0.6312 0.5977 0.4943
vn -0.0591 -0.1496 0.9870
vn -0.0591 -0.3972 0.9158
vn -0.0140 0.2067 0.9783
vn -0.0728 -0.1043 0.9919
vn -0.4121 0.5544 0.7230
vn 0.9443 -0.2358 -0.2294
vn 0.8265 0.5573 0.0801
vn 0.6027 0.7685 -0.2149
vn 0.3415 0.8744 -0.3448
vn 0.9485 0.3013 -0.0976
vn 0.4957 0.8674 -0.0437
vn 0.8936 -0.2682 -0.3599
vn 0.7241 0.0995 -0.6825
vn 0.5844 0.4434 -0.6796
vn 0.9526 -0.0720 -0.2957
vn 0.8443 0.5255 -0.1051
vn 0.6458 -0.6433 -0.4113
vn 0.8532 -0.1613 -0.4960
vn 0.8234 -0.5612 0.0838
vn 0.8440 -0.2231 -0.4878
vn -0.1128 0.0347 -0.9930
vn 0.0706 -0.1035 -0.9921
vn -0.1718 0.3178 -0.9325
vn -0.7605 0.0917 -0.6428
vn -0.5826 0.0972 -0.8069
vn -0.5911 0.0358 -0.8058
vn -0.7925 0.1589 -0.5888
vn -0.8061 0.0378 -0.5905
vn -0.5135 -0.2392 -0.8240
vn -0.6812 0.0699 -0.7288
vn -0.6923 -0.1085 -0.7134
vn -0.9872 -0.1099 -0.1157
vn -0.8565 -0.2940 -0.4242
vn -0.8315 0.5267 -0.1766
vn -0.7289 -0.1193 -0.6742
vn -0.7618 -0.2050 0.6146
vn -0.7664 -0.1488 0.6249
vn -0.4644 -0.1535 0.8722
vn -0.4651 -0.1814 0.8665
vn -0.3839 -0.2092 0.8994
vn -0.8135 -0.5666 0.1308
vn -0.7991 -0.6009 0.0191
vn -0.7664 -0.5122 0.3875
vn -0.8626 -0.4828 0.1512
vn -0.9711 -0.2088 -0.1154
vn -0.8806 -0.4720 -0.0414
vn -0.8452 -0.3955 0.3595
vn -0.8500 -0.2938 0.4372
vn -0.5775 -0.4697 0.6677
vn -0.5415 -0.4302 0.7223
vn -0.7210 -0.0761 0.6887
vn -0.4605 -0.4941 0.7374
vn 0.0387 -0.1815 0.9826
vn 0.5025 -0.3623 0.7850
vn 0.5639 -0.4640 0.6832
vn 0.7432 -0.5159 0.4259
vn 0.8592 -0.3181 0.4007
vn 0.8189 -0.4731 0.3249
vn 0.7153 -0.5746 0.3976
vn -0.1751 -0.7396 0.6498
vn 0.5235 -0.5883 0.6163
vn 0.7454 -0.3026 0.5940
vn 0.6535 0.2788 -0.7037
vn 0.6962 0.1555 -0.7008
vn 0.4924 0.0165 -0.8702
vn 0.6963 -0.2693 -0.6653
vn 0.5181 -0.0890 -0.8507
vn 0.5011 -0.0908 -0.8606
vn 0.6312 -0.5624 -0.5341
vn -0.0442 -0.6518 -0.7571
vn -0.8409 -0.0762 -0.5358
vn -0.3467 0.2631 -0.9003
vn -0.6602 0.6453 -0.3842
vn -0.2450 0.4614 -0.8527
vn -0.4064 0.6891 -0.6000
vn -0.9387 0.0407 -0.3422
vn -0.9873 0.1474 -0.0585
vn -0.9903 0.1073 0.0884
vn -0.6148 -0.2105 -0.7601
vn -0.8043 -0.5073 0.3093
vn -0.8293 -0.4991 -0.2514
vn -0.8216 -0.5100 -0.2545
vn -0.9734 -0.2171 0.0730
vn -0.7543 0.3843 -0.5323
vn -0.7180 -0.6878 0.1069
vn -0.7365 -0.6723 0.0753
vn -0.8572 -0.5102 0.0706
vn -0.8020 -0.2977 0.5178
vn -0.8743 -0.3808 0.3009
vn -0.2876 -0.4814 0.8280
vn -0.2409 -0.2478 0.9384
vn 0.1207 -0.2037 0.9716
vn -0.1026 -0.5028 0.8583
vn -0.3332 -0.6645 0.6689
vn -0.2780 -0.6743 0.6841
vn 0.0183 -0.5541 0.8322
vn 0.7947 -0.5852 -0.1614
vn 0.9070 -0.3915 0.1549
vn 0.7599 -0.6376 -0.1264
vn 0.9734 -0.0784 -0.2155
vn 0.9956 0.0593 -0.0722
vn 0.6026 -0.7740 -0.1942
vn 0.7516 -0.3026 -0.5862
vn 0.8134 -0.4035 -0.4191
vn 0.9566 -0.1199 0.2657
vn 0.9520 -0.1001 0.2893
vn 0.9531 -0.0924 0.2882
vn -0.6756 -0.7330 -0.0791
vn -0.5541 -0.8299 0.0648
vn -0.2919 -0.9553 0.0469
vn 0.2370 -0.9015 0.3620
vn -0.0387 -0.9992 -0.0070
vn 0.2972 -0.9387 0.1747
vn -0.6087 -0.7787 0.1521
vn 0.1147 -0.9017 0.4168
vn -0.2820 -0.9204 0.2709
vn 0.1028 -0.9890 0.1066
vn -0.1104 -0.9934 0.0299
vn -0.4905 -0.8498 0.1929
vn -0.6080 -0.7736 -0.1787
vn 0.1330 -0.9648 0.2269
vn -0.5260 -0.6464 0.5527
vn -0.5123 -0.6675 0.5403
vn -0.7963 -0.5755 -0.1865
vn -0.8535 -0.5162 -0.0707
vn -0.6161 -0.7090 -0.3432
vn -0.6474 -0.7456 -0.1577
vn -0.1176 -0.9661 0.2299
vn -0.0262 -0.9940 -0.1064
vn -0.1765 -0.9839 0.0289
vn 0.9991 -0.0194 -0.0381
vn 0.9985 -0.0299 -0.0459
vn 0.9893 -0.1237 -0.0771
vn 0.7399 -0.3411 -0.5798
vn 0.6307 -0.7741 -0.0546
vn 0.7620 -0.5604 0.3245
vn 0.6853 -0.7251 0.0679
vn 0.7799 -0.5917 0.2041
vn 0.6856 -0.7204 0.1050
vn 0.7926 -0.5198 0.3187
vn -0.4035 -0.9117 -0.0775
vn -0.0015 -0.9998 -0.0209
vn 0.2884 -0.9479 -0.1351
vn 0.3326 -0.9249 -0.1840
vn 0.3779 -0.9191 0.1116
vn 0.1115 -0.9569 -0.2680
vn -0.1933 -0.9689 0.1547
vn 0.1046 -0.8888 0.4462
vn -0.4365 -0.8935 0.1058
vn -0.2501 -0.8179 0.5182
vn 0.5384 -0.7476 0.3889
vt 0.842327 0.842532
vt 0.832862 0.863210
vt 0.834478 0.850211
vt 0.502814 0.600411
vt 0.489158 0.625313
vt 0.482878 0.623383
vt 0.846464 0.384080
vt 0.829326 0.380625
vt 0.829028 0.365198
vt 0.206728 0.652005
vt 0.185010 0.628119
vt 0.197603 0.605987
vt 0.634822 0.128657
vt 0.633046 0.108527
vt 0.658667 0.125772
vt 0.376661 0.180171
vt 0.345099 0.167085
vt 0.359558 0.144118
vt 0.564311 0.672998
vt 0.554463 0.654105
vt 0.583956 0.650899
vt 0.886963 0.567123
vt 0.857419 0.602612
vt 0.850789 0.577189
vt 0.111370 0.419895
vt 0.128801 0.418561
vt 0.098878 0.428478
vt 0.225607 0.290636
vt 0.222439 0.275669
vt 0.246854 0.244134
vt 0.228454 0.319265
vt 0.202544 0.300543
vt 0.213710 0.331105
vt 0.232433 0.248633
vt 0.209027 0.259411
vt 0.186890 0.278351
vt 0.188100 0.314992
vt 0.177455 0.262996
vt 0.592309 0.882976
vt 0.595191 0.870578
vt 0.599972 0.889671
vt 0.250951 0.272425
vt 0.266058 0.294452
vt 0.242018 0.298983
vt 0.258370 0.313329
vt 0.269669 0.324418
vt 0.251655 0.340893
vt 0.233775 0.336011
vt 0.303580 0.175728
vt 0.296022 0.188765
vt 0.302704 0.158433
vt 0.967382 0.515746
vt 0.963513 0.506669
vt 0.967382 0.506094
vt 0.151328 0.775269
vt 0.140076 0.796076
vt 0.133690 0.788168
vt 0.126137 0.801800
vt 0.253139 0.250841
vt 0.266238 0.258339
vt 0.270727 0.226238
vt 0.915678 0.897985
vt 0.909496 0.895629
vt 0.910645 0.883013
vt 0.378385 0.351031
vt 0.379249 0.341614
vt 0.402879 0.360281
vt 0.142804 0.402539
vt 0.164788 0.365984
vt 0.178610 0.377740
vt 0.161392 0.402539
vt 0.350909 0.314172
vt 0.376618 0.314130
vt 0.394671 0.319420
vt 0.191578 0.349792
vt 0.347036 0.294100
vt 0.330264 0.298359
vt 0.366829 0.299442
vt 0.367908 0.275362
vt 0.101630 0.391185
vt 0.123989 0.384392
vt 0.239337 0.691765
vt 0.258935 0.711394
vt 0.264869 0.728078
vt 0.147795 0.365998
vt 0.258985 0.669567
vt 0.262862 0.697474
vt 0.166875 0.335944
vt 0.137881 0.320239
vt 0.150474 0.317203
vt 0.147239 0.336372
vt 0.237067 0.673179
vt 0.622110 0.763043
vt 0.603392 0.772858
vt 0.601562 0.735063
vt 0.630060 0.722151
vt 0.631356 0.737161
vt 0.607604 0.722685
vt 0.384016 0.875062
vt 0.361131 0.871118
vt 0.397513 0.845288
vt 0.355236 0.840556
vt 0.370530 0.877162
vt 0.312401 0.858327
vt 0.089405 0.360024
vt 0.064526 0.384492
vt 0.096095 0.306261
vt 0.080247 0.337400
vt 0.781543 0.324104
vt 0.775218 0.292840
vt 0.802472 0.306611
vt 0.148626 0.755427
vt 0.134859 0.755211
vt 0.303584 0.193189
vt 0.327563 0.203356
vt 0.776174 0.405802
vt 0.766040 0.405174
vt 0.768688 0.395824
vt 0.306265 0.133288
vt 0.322670 0.162568
vt 0.322914 0.183732
vt 0.366220 0.205701
vt 0.353368 0.196294
vt 0.354800 0.218801
vt 0.383703 0.217742
vt 0.807076 0.344138
vt 0.777674 0.351498
vt 0.590544 0.363565
vt 0.605664 0.385064
vt 0.580407 0.386916
vt 0.603103 0.399756
vt 0.609222 0.352874
vt 0.909942 0.829235
vt 0.916890 0.832569
vt 0.911596 0.842176
vt 0.786229 0.368980
vt 0.766235 0.363882
vt 0.386245 0.245256
vt 0.342652 0.241658
vt 0.359381 0.234299
vt 0.334175 0.219192
vt 0.309661 0.208187
vt 0.314441 0.234653
vt 0.434590 0.207126
vt 0.408503 0.207134
vt 0.419843 0.184554
vt 0.586492 0.332238
vt 0.271162 0.933336
vt 0.264453 0.935252
vt 0.270355 0.923136
vt 0.634653 0.364369
vt 0.625686 0.374653
vt 0.544939 0.793931
vt 0.537104 0.784728
vt 0.572201 0.771057
vt 0.468018 0.264296
vt 0.489558 0.230243
vt 0.491208 0.244321
vt 0.443739 0.243685
vt 0.452268 0.231044
vt 0.459163 0.195047
vt 0.475751 0.218448
vt 0.471713 0.213045
vt 0.484923 0.202843
vt 0.629315 0.350618
vt 0.621640 0.322119
vt 0.453473 0.228653
vt 0.601899 0.316358
vt 0.521320 0.290589
vt 0.490325 0.280037
vt 0.530723 0.257477
vt 0.505951 0.308551
vt 0.501810 0.245316
vt 0.530887 0.230494
vt 0.477208 0.305258
vt 0.959994 0.945444
vt 0.959994 0.956822
vt 0.954228 0.954018
vt 0.446409 0.267865
vt 0.428532 0.276458
vt 0.416200 0.263274
vt 0.505727 0.349785
vt 0.471387 0.335490
vt 0.448665 0.313105
vt 0.535554 0.335872
vt 0.541759 0.306357
vt 0.561993 0.321066
vt 0.560073 0.297162
vt 0.551413 0.281228
vt 0.546026 0.263406
vt 0.322824 0.775697
vt 0.319860 0.764372
vt 0.350561 0.779381
vt 0.313445 0.747185
vt 0.328982 0.728801
vt 0.296261 0.757404
vt 0.299446 0.713283
vt 0.518186 0.385353
vt 0.541220 0.362382
vt 0.540779 0.378031
vt 0.300040 0.726646
vt 0.483789 0.362747
vt 0.706086 0.843045
vt 0.696063 0.817519
vt 0.710602 0.821561
vt 0.707961 0.797886
vt 0.700225 0.789122
vt 0.331984 0.802317
vt 0.312853 0.791238
vt 0.296055 0.834778
vt 0.490064 0.401800
vt 0.508012 0.403946
vt 0.513499 0.395914
vt 0.439537 0.387733
vt 0.446490 0.354985
vt 0.289609 0.865368
vt 0.185654 0.850607
vt 0.169226 0.857741
vt 0.178955 0.830100
vt 0.806576 0.218822
vt 0.769843 0.198113
vt 0.795121 0.177271
vt 0.777824 0.227140
vt 0.767133 0.235556
vt 0.331647 0.835270
vt 0.794593 0.248947
vt 0.330457 0.828746
vt 0.353268 0.798569
vt 0.187075 0.690875
vt 0.182824 0.678211
vt 0.042180 0.317692
vt 0.024863 0.306007
vt 0.069215 0.269931
vt 0.273798 0.903941
vt 0.264472 0.907622
vt 0.272239 0.892963
vt 0.085769 0.279646
vt 0.020391 0.340749
vt 0.423204 0.869280
vt 0.904461 0.064200
vt 0.894740 0.058562
vt 0.904461 0.052931
vt 0.050214 0.366986
vt 0.206712 0.601511
vt 0.202159 0.615635
vt 0.924779 0.579485
vt 0.929006 0.583755
vt 0.924779 0.602803
vt 0.091806 0.257338
vt 0.681474 0.749741
vt 0.660953 0.764260
vt 0.662757 0.734533
vt 0.839990 0.585684
vt 0.851111 0.616405
vt 0.828467 0.602707
vt 0.107222 0.230074
vt 0.120474 0.256735
vt 0.100941 0.243670
vt 0.137612 0.283333
vt 0.837262 0.642964
vt 0.470661 0.960934
vt 0.473486 0.971796
vt 0.466636 0.971796
vt 0.869307 0.636134
vt 0.147340 0.277155
vt 0.135475 0.301865
vt 0.034391 0.078250
vt 0.028897 0.092862
vt 0.024789 0.048545
vt 0.876303 0.542735
vt 0.007904 0.057040
vt 0.853234 0.469664
vt 0.833222 0.488572
vt 0.841630 0.424184
vt 0.070115 0.078243
vt 0.060073 0.113163
vt 0.043545 0.111179
vt 0.801497 0.545912
vt 0.860556 0.519202
vt 0.834668 0.551329
vt 0.797760 0.569410
vt 0.088638 0.135907
vt 0.851655 0.551312
vt 0.213492 0.558831
vt 0.204761 0.592005
vt 0.192163 0.564858
vt 0.194611 0.593454
vt 0.123267 0.109683
vt 0.105025 0.148911
vt 0.817018 0.595855
vt 0.228093 0.191396
vt 0.188716 0.173436
vt 0.232685 0.169204
vt 0.187142 0.202115
vt 0.207565 0.229700
vt 0.251763 0.217664
vt 0.242530 0.226417
vt 0.187123 0.231088
vt 0.179080 0.251727
vt 0.233995 0.131440
vt 0.206671 0.098678
vt 0.855464 0.102308
vt 0.848543 0.113792
vt 0.836921 0.089916
vt 0.834953 0.105229
vt 0.097150 0.757129
vt 0.107103 0.781610
vt 0.085634 0.769565
vt 0.089324 0.795600
vt 0.788244 0.046223
vt 0.799331 0.092197
vt 0.771316 0.080072
vt 0.103483 0.810237
vt 0.770423 0.117214
vt 0.259773 0.221788
vt 0.608001 0.595232
vt 0.579401 0.551696
vt 0.618791 0.566781
vt 0.583347 0.619043
vt 0.567686 0.596175
vt 0.551426 0.579588
vt 0.564218 0.544540
vt 0.806525 0.006956
vt 0.813730 0.035894
vt 0.583688 0.622083
vt 0.892938 0.173105
vt 0.884426 0.183436
vt 0.883311 0.152113
vt 0.357451 0.085078
vt 0.359675 0.118543
vt 0.337305 0.076971
vt 0.330703 0.113764
vt 0.318776 0.131319
vt 0.391526 0.100504
vt 0.382115 0.138360
vt 0.412450 0.111494
vt 0.439323 0.046098
vt 0.418697 0.050796
vt 0.404323 0.026120
vt 0.390967 0.064993
vt 0.428400 0.100083
vt 0.404296 0.079239
vt 0.366410 0.059108
vt 0.383464 0.034072
vt 0.908243 0.211690
vt 0.907732 0.190055
vt 0.914981 0.197919
vt 0.553316 0.751765
vt 0.534155 0.747341
vt 0.542366 0.728282
vt 0.505972 0.198186
vt 0.502963 0.177776
vt 0.529751 0.188370
vt 0.516310 0.164623
vt 0.482568 0.164935
vt 0.571746 0.750474
vt 0.523229 0.211598
vt 0.602991 0.798054
vt 0.605808 0.831924
vt 0.592232 0.818569
vt 0.542093 0.183445
vt 0.562044 0.725020
vt 0.572742 0.732329
vt 0.622323 0.100046
vt 0.640927 0.091195
vt 0.614559 0.115867
vt 0.551191 0.204130
vt 0.552333 0.215189
vt 0.538600 0.209686
vt 0.894804 0.882381
vt 0.887162 0.887745
vt 0.887783 0.876409
vt 0.636909 0.884041
vt 0.628770 0.898258
vt 0.629915 0.875069
vt 0.625615 0.138738
vt 0.885413 0.276147
vt 0.895410 0.300889
vt 0.887595 0.297064
vt 0.548067 0.149376
vt 0.534556 0.155013
vt 0.552756 0.129635
vt 0.669689 0.087337
vt 0.783642 0.894439
vt 0.777153 0.903386
vt 0.776805 0.884661
vt 0.671627 0.074776
vt 0.669611 0.064275
vt 0.702112 0.235787
vt 0.677854 0.258214
vt 0.681456 0.212652
vt 0.636338 0.224416
vt 0.660336 0.261296
vt 0.377514 0.727767
vt 0.368834 0.711465
vt 0.621341 0.264871
vt 0.617334 0.227336
vt 0.350712 0.757299
vt 0.704600 0.877957
vt 0.700858 0.889388
vt 0.693569 0.885826
vt 0.599350 0.232310
vt 0.553975 0.835252
vt 0.534402 0.845115
vt 0.534133 0.820796
vt 0.693054 0.278193
vt 0.668810 0.282812
vt 0.708790 0.260293
vt 0.713324 0.285547
vt 0.678314 0.290911
vt 0.886797 0.838238
vt 0.895982 0.841514
vt 0.896015 0.860509
vt 0.403273 0.766903
vt 0.387527 0.769635
vt 0.874954 0.363183
vt 0.879273 0.376096
vt 0.868049 0.384311
vt 0.746110 0.397515
vt 0.744245 0.406080
vt 0.737756 0.397515
vt 0.373555 0.784461
vt 0.705174 0.859161
vt 0.692492 0.874368
vt 0.074211 0.618712
vt 0.036517 0.631682
vt 0.055530 0.599941
vt 0.062795 0.663705
vt 0.042225 0.661853
vt 0.029293 0.776035
vt 0.010004 0.793049
vt 0.019027 0.766286
vt 0.021988 0.818587
vt 0.087046 0.831759
vt 0.101251 0.859228
vt 0.088986 0.861765
vt 0.094088 0.693044
vt 0.071919 0.719412
vt 0.055747 0.687238
vt 0.740377 0.247475
vt 0.714767 0.240387
vt 0.735754 0.275236
vt 0.482884 0.707869
vt 0.471803 0.717724
vt 0.472052 0.708744
vt 0.490491 0.719234
vt 0.476715 0.732772
vt 0.488139 0.752879
vt 0.111327 0.058135
vt 0.103618 0.033969
vt 0.123817 0.032941
vt 0.119858 0.009761
vt 0.090951 0.054039
vt 0.512084 0.773106
vt 0.489063 0.793286
vt 0.098939 0.091199
vt 0.500487 0.794237
vt 0.272143 0.874535
vt 0.264453 0.855489
vt 0.273989 0.848235
vt 0.056541 0.051282
vt 0.052401 0.869618
vt 0.045433 0.847839
vt 0.061517 0.855524
vt 0.151766 0.014292
vt 0.159169 0.048004
vt 0.151675 0.081103
vt 0.192778 0.069942
vt 0.205651 0.084990
vt 0.061209 0.832988
vt 0.162226 0.097361
vt 0.174339 0.121746
vt 0.136939 0.156652
vt 0.115476 0.146380
vt 0.624652 0.531380
vt 0.237623 0.108969
vt 0.614694 0.514551
vt 0.588521 0.519126
vt 0.604565 0.497460
vt 0.629878 0.496336
vt 0.213697 0.078106
vt 0.636081 0.465160
vt 0.610070 0.458259
vt 0.545522 0.543748
vt 0.664375 0.660686
vt 0.626758 0.642177
vt 0.632794 0.621506
vt 0.614012 0.668374
vt 0.598073 0.639065
vt 0.022769 0.864143
vt 0.007039 0.872780
vt 0.012112 0.851580
vt 0.606484 0.614060
vt 0.637988 0.597525
vt 0.645969 0.699843
vt 0.648496 0.675627
vt 0.357766 0.045511
vt 0.622804 0.692870
vt 0.598766 0.684625
vt 0.317903 0.074819
vt 0.333414 0.053372
vt 0.575553 0.683616
vt 0.427987 0.022433
vt 0.466193 0.675096
vt 0.453143 0.688167
vt 0.460274 0.649020
vt 0.402012 0.007544
vt 0.413408 0.012714
vt 0.988298 0.746904
vt 0.983680 0.752004
vt 0.983680 0.742375
vt 0.388478 0.014676
vt 0.364040 0.031972
vt 0.679699 0.695504
vt 0.491421 0.079970
vt 0.481114 0.055112
vt 0.503705 0.067791
vt 0.460375 0.065343
vt 0.445397 0.037873
vt 0.440738 0.045811
vt 0.521753 0.129268
vt 0.485350 0.134818
vt 0.513535 0.107767
vt 0.514556 0.080992
vt 0.460795 0.129898
vt 0.245618 0.447786
vt 0.251328 0.481991
vt 0.236341 0.447882
vt 0.540217 0.113207
vt 0.523741 0.095748
vt 0.710746 0.744282
vt 0.712894 0.722151
vt 0.713730 0.734287
vt 0.688088 0.123186
vt 0.700136 0.100944
vt 0.698132 0.068845
vt 0.716785 0.100805
vt 0.705977 0.058347
vt 0.559840 0.143484
vt 0.564617 0.131676
vt 0.700657 0.051218
vt 0.701457 0.138813
vt 0.845571 0.187175
vt 0.835927 0.187984
vt 0.829603 0.167278
vt 0.782644 0.967298
vt 0.775375 0.967298
vt 0.780729 0.955757
vt 0.947618 0.203332
vt 0.947618 0.190409
vt 0.955544 0.201319
vt 0.673715 0.878124
vt 0.661689 0.871419
vt 0.674768 0.860203
vt 0.693507 0.156562
vt 0.663164 0.160914
vt 0.703280 0.192423
vt 0.683487 0.190971
vt 0.669950 0.187954
vt 0.636047 0.169773
vt 0.040645 0.607717
vt 0.025455 0.587858
vt 0.721277 0.218208
vt 0.061760 0.560485
vt 0.872078 0.856398
vt 0.863895 0.858135
vt 0.864608 0.840124
vt 0.017512 0.560933
vt 0.044802 0.548160
vt 0.729690 0.174228
vt 0.713086 0.156948
vt 0.744439 0.147969
vt 0.736673 0.130035
vt 0.006964 0.765311
vt 0.843879 0.153178
vt 0.948273 0.405714
vt 0.940682 0.398785
vt 0.948273 0.391871
vt 0.729972 0.100614
vt 0.729905 0.961265
vt 0.727888 0.950746
vt 0.736979 0.950746
vt 0.123370 0.570058
vt 0.114506 0.551217
vt 0.135865 0.535358
vt 0.106079 0.660565
vt 0.104172 0.607252
vt 0.085113 0.579305
vt 0.085309 0.651742
vt 0.063944 0.585991
vt 0.145471 0.548568
vt 0.758218 0.524359
vt 0.747340 0.576307
vt 0.732503 0.553642
vt 0.871118 0.789768
vt 0.859995 0.814794
vt 0.865235 0.776644
vt 0.154644 0.584205
vt 0.132701 0.611695
vt 0.138425 0.581547
vt 0.911461 0.553255
vt 0.903832 0.565558
vt 0.903832 0.541255
vt 0.174402 0.595625
vt 0.137707 0.659031
vt 0.133121 0.699234
vt 0.120075 0.722652
vt 0.830185 0.456023
vt 0.066474 0.794241
vt 0.046292 0.788616
vt 0.068452 0.753559
vt 0.788134 0.535362
vt 0.795365 0.488609
vt 0.466815 0.850587
vt 0.470062 0.826917
vt 0.489806 0.844989
vt 0.484991 0.817686
vt 0.778077 0.478109
vt 0.764370 0.590313
vt 0.248541 0.798720
vt 0.254890 0.816099
vt 0.241421 0.822259
vt 0.803023 0.772854
vt 0.830673 0.738320
vt 0.799249 0.793065
vt 0.063048 0.012188
vt 0.034499 0.027811
vt 0.043101 0.012799
vt 0.171303 0.757088
vt 0.178296 0.764591
vt 0.169995 0.796093
vt 0.192250 0.783120
vt 0.185816 0.800732
vt 0.466636 0.781321
vt 0.875158 0.051677
vt 0.878190 0.063425
vt 0.870515 0.059732
vt 0.923389 0.637260
vt 0.923389 0.618403
vt 0.930320 0.623400
vt 0.817566 0.829760
vt 0.686321 0.489999
vt 0.681452 0.464609
vt 0.700753 0.472058
vt 0.765362 0.804869
vt 0.791565 0.763972
vt 0.786116 0.824393
vt 0.237846 0.769813
vt 0.251235 0.776557
vt 0.250207 0.743146
vt 0.819808 0.725251
vt 0.780720 0.722082
vt 0.809203 0.712166
vt 0.651493 0.430233
vt 0.626727 0.439015
vt 0.647306 0.420774
vt 0.699296 0.505321
vt 0.675144 0.523846
vt 0.657837 0.469303
vt 0.660314 0.444358
vt 0.868147 0.290357
vt 0.859621 0.301107
vt 0.856010 0.274177
vt 0.663567 0.324484
vt 0.672124 0.304839
vt 0.677276 0.316598
vt 0.353034 0.550264
vt 0.312352 0.551243
vt 0.330813 0.519636
vt 0.308707 0.514575
vt 0.323854 0.480479
vt 0.054954 0.905264
vt 0.044837 0.898945
vt 0.047176 0.884295
vt 0.217392 0.846175
vt 0.206883 0.847784
vt 0.206400 0.825154
vt 0.713960 0.496715
vt 0.883181 0.109948
vt 0.871068 0.093486
vt 0.880940 0.094039
vt 0.883181 0.078128
vt 0.756303 0.770566
vt 0.740348 0.797954
vt 0.761734 0.739255
vt 0.668057 0.553511
vt 0.691289 0.540592
vt 0.657949 0.594820
vt 0.656207 0.563822
vt 0.641193 0.829997
vt 0.629427 0.834340
vt 0.637159 0.808633
vt 0.662685 0.543208
vt 0.646281 0.562228
vt 0.651900 0.518267
vt 0.673204 0.630230
vt 0.730936 0.338789
vt 0.727034 0.381733
vt 0.718006 0.331408
vt 0.391726 0.629457
vt 0.357133 0.633489
vt 0.326465 0.598902
vt 0.381107 0.591507
vt 0.904368 0.097130
vt 0.897108 0.094345
vt 0.904461 0.078128
vt 0.577313 0.895781
vt 0.573808 0.907999
vt 0.569951 0.882885
vt 0.734010 0.364083
vt 0.693939 0.621078
vt 0.686763 0.655404
vt 0.413671 0.969412
vt 0.413671 0.959423
vt 0.421712 0.967981
vt 0.861505 0.757513
vt 0.858159 0.721761
vt 0.868514 0.732337
vt 0.860730 0.710859
vt 0.681452 0.386980
vt 0.656986 0.368382
vt 0.300972 0.571494
vt 0.404870 0.603936
vt 0.443618 0.622749
vt 0.449905 0.643213
vt 0.428930 0.622723
vt 0.438255 0.650920
vt 0.989819 0.668584
vt 0.985061 0.661088
vt 0.989819 0.659715
vt 0.460912 0.615562
vt 0.883672 0.031403
vt 0.871022 0.030765
vt 0.880106 0.017864
vt 0.870519 0.010054
vt 0.476622 0.633956
vt 0.552058 0.883205
vt 0.534303 0.890800
vt 0.535322 0.876906
vt 0.494358 0.052457
vt 0.461211 0.567129
vt 0.488721 0.578809
vt 0.450301 0.585157
vt 0.959542 0.077856
vt 0.963018 0.092280
vt 0.958787 0.084892
vt 0.435326 0.599804
vt 0.447280 0.618260
vt 0.907959 0.175289
vt 0.907411 0.152911
vt 0.911584 0.150820
vt 0.987676 0.148407
vt 0.987676 0.157415
vt 0.983306 0.153437
vt 0.476232 0.610544
vt 0.496605 0.596537
vt 0.444207 0.550950
vt 0.422864 0.583032
vt 0.402248 0.550265
vt 0.693834 0.358698
vt 0.697072 0.400819
vt 0.683190 0.336439
vt 0.725549 0.306402
vt 0.734413 0.332207
vt 0.421367 0.602012
vt 0.734435 0.307358
vt 0.740921 0.326874
vt 0.738013 0.044256
vt 0.725150 0.042817
vt 0.732329 0.020874
vt 0.716630 0.044294
vt 0.717844 0.035968
vt 0.973509 0.192552
vt 0.972114 0.204436
vt 0.969471 0.196585
vt 0.552469 0.113606
vt 0.039011 0.469474
vt 0.010499 0.474379
vt 0.027834 0.450317
vt 0.024034 0.487037
vt 0.054067 0.483879
vt 0.030060 0.526026
vt 0.040726 0.499674
vt 0.012914 0.526652
vt 0.366581 0.506992
vt 0.377353 0.538288
vt 0.392571 0.509715
vt 0.420039 0.497873
vt 0.437457 0.508299
vt 0.064993 0.450490
vt 0.046815 0.460314
vt 0.054117 0.449640
vt 0.462530 0.513194
vt 0.468150 0.542688
vt 0.038185 0.453192
vt 0.429291 0.477786
vt 0.470947 0.491910
vt 0.663029 0.927313
vt 0.663029 0.943021
vt 0.656334 0.937372
vt 0.863470 0.170801
vt 0.869284 0.188040
vt 0.863362 0.189747
vt 0.867940 0.199790
vt 0.091075 0.516704
vt 0.088464 0.547014
vt 0.080319 0.530416
vt 0.474973 0.455961
vt 0.507741 0.456611
vt 0.459469 0.469597
vt 0.104477 0.531491
vt 0.496871 0.434640
vt 0.114945 0.533426
vt 0.325066 0.461116
vt 0.347891 0.439907
vt 0.361024 0.470719
vt 0.382495 0.478426
vt 0.395055 0.466764
vt 0.912726 0.728569
vt 0.906319 0.717591
vt 0.912210 0.710859
vt 0.906319 0.735432
vt 0.895503 0.376048
vt 0.902092 0.382489
vt 0.899767 0.391040
vt 0.371171 0.458883
vt 0.898378 0.360338
vt 0.296797 0.432041
vt 0.385502 0.454890
vt 0.330997 0.421303
vt 0.769570 0.436786
vt 0.764170 0.476569
vt 0.744478 0.472580
vt 0.744814 0.494856
vt 0.576243 0.815444
vt 0.576367 0.853922
vt 0.571596 0.856603
vt 0.846103 0.012138
vt 0.834706 0.045242
vt 0.833763 0.014299
vt 0.299853 0.489513
vt 0.350390 0.520112
vt 0.361415 0.491043
vt 0.358888 0.485702
vt 0.851182 0.045173
vt 0.838585 0.060818
vt 0.763177 0.837842
vt 0.728497 0.837211
vt 0.515370 0.896113
vt 0.512817 0.874803
vt 0.519460 0.883859
vt 0.803807 0.811073
vt 0.798674 0.844719
vt 0.761726 0.859040
vt 0.808196 0.431891
vt 0.801362 0.462111
vt 0.047975 0.757027
vt 0.943493 0.037522
vt 0.939455 0.054675
vt 0.938612 0.043406
vt 0.050714 0.526462
vt 0.047130 0.512307
vt 0.493082 0.480734
vt 0.060716 0.535994
vt 0.744314 0.101717
vt 0.747515 0.055467
vt 0.721604 0.028703
vt 0.698312 0.966723
vt 0.692217 0.972092
vt 0.692087 0.962197
vt 0.599249 0.914902
vt 0.592491 0.922837
vt 0.593690 0.908579
vt 0.551522 0.103483
vt 0.501320 0.579203
vt 0.504366 0.583266
vt 0.830507 0.391630
vt 0.823853 0.392425
vt 0.086237 0.894519
vt 0.086284 0.884503
vt 0.093969 0.898386
vt 0.435559 0.673494
vt 0.419948 0.668436
vt 0.420742 0.659187
vt 0.441982 0.680346
vt 0.698912 0.678521
vt 0.661891 0.498550
vt 0.855657 0.327413
vt 0.862110 0.324012
vt 0.007366 0.330108
vt 0.015782 0.320706
vt 0.157208 0.707294
vt 0.429255 0.839439
vt 0.448941 0.855615
vt 0.444756 0.841587
vt 0.140077 0.714874
vt 0.138512 0.728786
vt 0.427939 0.799060
vt 0.448522 0.824772
vt 0.784401 0.153688
vt 0.396644 0.820969
vt 0.647035 0.194198
vt 0.671604 0.201181
vt 0.834600 0.209982
vt 0.827270 0.200396
vt 0.618909 0.194512
vt 0.589327 0.207470
vt 0.599838 0.184494
vt 0.143569 0.866576
vt 0.128893 0.859407
vt 0.140591 0.844307
vt 0.126206 0.824266
vt 0.617124 0.168786
vt 0.492046 0.150974
vt 0.237956 0.504817
vt 0.261821 0.517625
vt 0.247289 0.531052
vt 0.456581 0.167671
vt 0.409715 0.163011
vt 0.317128 0.100198
vt 0.302542 0.107824
vt 0.301336 0.094843
vt 0.298638 0.081067
vt 0.981310 0.041809
vt 0.979966 0.048006
vt 0.977557 0.037522
vt 0.296148 0.130725
vt 0.169226 0.895116
vt 0.169335 0.878305
vt 0.184013 0.883203
vt 0.159249 0.193833
vt 0.146948 0.173971
vt 0.916312 0.955988
vt 0.908093 0.955988
vt 0.911913 0.943868
vt 0.167635 0.237543
vt 0.155753 0.222951
vt 0.081277 0.736142
vt 0.435367 0.784054
vt 0.583889 0.186369
vt 0.605187 0.137602
vt 0.588479 0.165576
vt 0.590479 0.132475
vt 0.554936 0.252732
vt 0.530982 0.230443
vt 0.555704 0.224684
vt 0.565562 0.284072
vt 0.891743 0.743071
vt 0.884615 0.728079
vt 0.891737 0.715093
vt 0.444173 0.190620
vt 0.811791 0.089390
vt 0.818246 0.083267
vt 0.879737 0.250030
vt 0.871562 0.250751
vt 0.871469 0.234097
vt 0.785297 0.119562
vt 0.787559 0.110721
vt 0.289868 0.157354
vt 0.290766 0.139093
vt 0.765376 0.134480
vt 0.883603 0.590276
vt 0.143129 0.206822
vt 0.879077 0.606460
vt 0.909390 0.596758
vt 0.903832 0.580064
vt 0.910852 0.582602
vt 0.147623 0.239868
vt 0.884551 0.673974
vt 0.860195 0.674058
vt 0.167047 0.253256
vt 0.156849 0.262997
vt 0.422715 0.296166
vt 0.239847 0.601881
vt 0.256002 0.614294
vt 0.232983 0.631983
vt 0.241834 0.648311
vt 0.259214 0.633858
vt 0.245625 0.580404
vt 0.256369 0.575549
vt 0.257795 0.593829
vt 0.400648 0.282220
vt 0.872008 0.406546
vt 0.866028 0.406546
vt 0.866338 0.400451
vt 0.945684 0.669367
vt 0.945684 0.659715
vt 0.949810 0.669716
vt 0.405615 0.268149
vt 0.963061 0.626690
vt 0.967212 0.618403
vt 0.968567 0.628731
vt 0.385631 0.259043
vt 0.355655 0.257935
vt 0.342053 0.256031
vt 0.664476 0.897847
vt 0.666290 0.908221
vt 0.658550 0.913385
vt 0.476507 0.866032
vt 0.482876 0.874668
vt 0.466636 0.874297
vt 0.468593 0.883835
vt 0.472086 0.887020
vt 0.874315 0.697006
vt 0.800105 0.956935
vt 0.803526 0.968671
vt 0.798513 0.963083
vt 0.168712 0.294494
vt 0.157638 0.310345
vt 0.314972 0.248023
vt 0.090000 0.938398
vt 0.084925 0.930152
vt 0.086526 0.921282
vt 0.659921 0.829233
vt 0.674592 0.803719
vt 0.673853 0.828157
vt 0.660051 0.801474
vt 0.248084 0.852937
vt 0.234476 0.857276
vt 0.245674 0.842956
vt 0.671986 0.787367
vt 0.348521 0.275815
vt 0.246924 0.873566
vt 0.324087 0.271931
vt 0.314170 0.281934
vt 0.304862 0.267894
s 0
usemtl Material.003
f 249/1/1 15/2/1 64/3/1
f 28/4/2 269/5/2 80/6/2
f 76/7/3 319/8/3 330/9/3
f 3/10/4 91/11/4 12/12/4
f 97/13/5 236/14/5 98/15/5
f 397/16/6 131/17/6 118/18/6
f 263/19/7 219/20/7 261/21/7
f 106/22/8 199/23/8 208/24/8
f 134/25/9 41/26/9 157/27/9
f 137/28/10 138/29/10 147/30/10
f 142/31/11 140/32/11 137/28/11
f 144/33/12 140/32/12 142/31/12
f 138/29/13 213/34/13 147/30/13
f 138/29/14 139/35/14 213/34/14
f 140/32/15 415/36/15 137/28/15
f 137/28/16 415/36/16 138/29/16
f 144/33/17 416/37/17 140/32/17
f 138/29/18 8/38/18 139/35/18
f 8/39/19 402/40/19 139/41/19
f 138/29/20 415/36/20 8/38/20
f 146/42/21 137/28/21 147/30/21
f 145/43/22 141/44/22 146/42/22
f 146/42/23 141/44/23 137/28/23
f 141/44/24 142/31/24 137/28/24
f 145/43/25 143/45/25 141/44/25
f 145/43/26 130/46/26 143/45/26
f 130/46/27 417/47/27 143/45/27
f 417/47/28 418/48/28 143/45/28
f 143/45/29 418/48/29 141/44/29
f 418/48/30 142/31/30 141/44/30
f 142/31/31 418/48/31 144/33/31
f 163/49/32 161/50/32 162/51/32
f 161/52/33 7/53/33 162/54/33
f 169/55/34 145/56/34 161/57/34
f 161/57/35 145/56/35 7/58/35
f 146/42/36 147/59/36 7/60/36
f 7/60/37 147/59/37 215/61/37
f 169/62/38 130/63/38 145/64/38
f 145/43/39 146/42/39 7/60/39
f 134/65/40 149/66/40 41/67/40
f 134/68/41 135/69/41 148/70/41
f 148/70/42 149/71/42 134/68/42
f 148/72/43 150/73/43 149/66/43
f 149/66/44 150/73/44 40/74/44
f 136/75/45 148/70/45 135/69/45
f 148/72/46 151/76/46 150/73/46
f 136/77/47 151/76/47 148/72/47
f 150/78/48 151/76/48 40/74/48
f 40/74/49 151/76/49 412/79/49
f 158/80/50 133/81/50 134/68/50
f 159/82/51 152/83/51 133/84/51
f 133/81/52 152/85/52 134/68/52
f 152/85/53 135/69/53 134/68/53
f 159/82/54 153/86/54 152/87/54
f 152/85/55 153/88/55 135/69/55
f 132/89/56 154/90/56 159/91/56
f 159/82/57 154/92/57 153/86/57
f 155/93/58 153/94/58 154/95/58
f 153/88/59 136/75/59 135/69/59
f 123/96/60 2/97/60 132/98/60
f 132/98/61 2/97/61 154/95/61
f 2/97/62 155/93/62 154/95/62
f 153/88/63 416/37/63 136/75/63
f 195/99/64 156/100/64 196/101/64
f 196/101/65 156/100/65 9/102/65
f 195/99/66 39/103/66 156/100/66
f 156/100/67 157/104/67 9/102/67
f 39/105/68 158/80/68 156/106/68
f 123/107/69 39/105/69 194/108/69
f 39/105/70 159/91/70 158/80/70
f 156/106/71 158/80/71 157/27/71
f 158/80/72 134/25/72 157/27/72
f 123/107/73 132/89/73 39/105/73
f 132/89/74 159/91/74 39/105/74
f 159/91/75 133/81/75 158/80/75
f 164/109/76 160/110/76 131/111/76
f 168/112/77 169/55/77 167/113/77
f 169/55/78 161/57/78 167/113/78
f 161/114/79 163/49/79 167/115/79
f 167/116/80 163/117/80 164/118/80
f 162/51/81 398/119/81 160/120/81
f 164/121/82 163/49/82 160/120/82
f 163/49/83 162/51/83 160/120/83
f 397/16/84 171/122/84 131/17/84
f 171/122/85 164/123/85 131/17/85
f 171/122/86 165/124/86 164/123/86
f 170/125/87 165/124/87 171/122/87
f 165/126/88 167/127/88 164/109/88
f 170/128/89 166/129/89 165/130/89
f 166/129/90 167/131/90 165/130/90
f 44/132/91 166/129/91 170/128/91
f 44/133/92 129/134/92 166/135/92
f 166/136/93 168/137/93 167/127/93
f 129/138/94 411/139/94 166/140/94
f 166/140/95 411/139/95 168/141/95
f 168/141/96 411/139/96 169/142/96
f 411/139/97 130/143/97 169/142/97
f 42/144/98 43/145/98 20/146/98
f 20/146/99 43/145/99 397/16/99
f 44/132/100 170/128/100 43/147/100
f 170/125/101 397/16/101 43/145/101
f 170/148/102 171/149/102 397/150/102
f 408/151/103 129/152/103 44/132/103
f 127/153/104 172/154/104 234/155/104
f 174/156/105 172/157/105 127/158/105
f 174/156/106 128/159/106 172/157/106
f 128/160/107 230/161/107 172/162/107
f 172/163/108 230/161/108 229/164/108
f 175/165/109 44/132/109 128/166/109
f 128/167/110 42/144/110 230/161/110
f 408/151/111 44/132/111 175/165/111
f 44/132/112 43/147/112 128/166/112
f 43/147/113 42/168/113 128/166/113
f 178/169/114 173/170/114 179/171/114
f 46/172/115 173/170/115 178/169/115
f 179/171/116 127/173/116 234/174/116
f 173/170/117 127/158/117 179/171/117
f 173/170/118 174/156/118 127/158/118
f 46/172/119 126/175/119 173/170/119
f 174/176/120 175/177/120 128/178/120
f 173/170/121 175/179/121 174/156/121
f 126/175/122 175/179/122 173/170/122
f 406/180/123 408/181/123 175/179/123
f 125/182/124 405/183/124 126/175/124
f 126/175/125 403/184/125 175/179/125
f 403/184/126 406/180/126 175/179/126
f 45/185/127 176/186/127 11/187/127
f 176/186/128 395/188/128 11/187/128
f 176/186/129 177/189/129 395/188/129
f 176/186/130 178/169/130 177/189/130
f 45/185/131 178/169/131 176/186/131
f 177/189/132 178/169/132 396/190/132
f 178/169/133 179/171/133 396/190/133
f 45/185/134 46/172/134 178/169/134
f 125/182/135 126/175/135 46/172/135
f 124/191/136 47/192/136 112/193/136
f 180/194/137 238/195/137 47/192/137
f 47/192/138 184/196/138 180/194/138
f 180/194/139 182/197/139 238/195/139
f 184/198/140 181/199/140 180/200/140
f 180/194/141 181/201/141 182/197/141
f 186/202/142 125/182/142 184/198/142
f 184/198/143 125/182/143 181/199/143
f 125/203/144 45/204/144 181/205/144
f 45/204/145 182/206/145 181/205/145
f 46/172/146 45/185/146 125/182/146
f 45/204/147 11/207/147 182/206/147
f 191/208/148 183/209/148 124/191/148
f 157/104/149 185/210/149 191/208/149
f 183/211/150 184/198/150 124/212/150
f 124/212/151 184/198/151 47/213/151
f 191/208/152 185/210/152 183/209/152
f 183/211/153 186/202/153 184/198/153
f 185/214/154 186/202/154 183/211/154
f 185/214/155 187/215/155 186/202/155
f 157/104/156 41/216/156 185/210/156
f 185/214/157 41/67/157 187/215/157
f 186/217/158 405/218/158 125/219/158
f 9/220/159 25/221/159 196/222/159
f 9/220/160 188/223/160 25/221/160
f 188/223/161 190/224/161 25/221/161
f 157/104/162 189/225/162 9/102/162
f 9/220/163 189/226/163 188/223/163
f 189/226/164 190/224/164 188/223/164
f 189/227/165 191/208/165 190/228/165
f 190/228/166 191/208/166 112/193/166
f 157/104/167 191/208/167 189/227/167
f 191/208/168 124/191/168 112/193/168
f 3/10/169 192/229/169 50/230/169
f 122/231/170 192/232/170 3/233/170
f 122/234/171 193/235/171 192/236/171
f 198/237/172 123/107/172 122/231/172
f 123/107/173 194/108/173 122/231/173
f 194/108/174 193/238/174 122/231/174
f 195/99/175 196/101/175 193/239/175
f 194/240/176 39/241/176 193/242/176
f 39/105/177 195/243/177 193/238/177
f 207/244/178 3/10/178 12/245/178
f 207/246/179 197/247/179 3/248/179
f 197/249/180 198/237/180 3/233/180
f 3/233/181 198/237/181 122/231/181
f 199/250/182 200/251/182 208/252/182
f 208/253/183 200/254/183 209/255/183
f 209/256/184 201/257/184 207/258/184
f 207/258/185 201/257/185 197/249/185
f 201/257/186 202/259/186 197/249/186
f 197/249/187 202/259/187 198/237/187
f 200/254/188 201/260/188 209/255/188
f 199/261/189 399/262/189 200/263/189
f 200/254/190 399/264/190 201/260/190
f 201/257/191 401/265/191 202/259/191
f 198/237/192 202/259/192 123/107/192
f 202/259/193 2/266/193 123/107/193
f 48/267/194 203/268/194 249/269/194
f 106/22/195 208/24/195 253/270/195
f 249/269/196 203/268/196 15/271/196
f 203/272/197 14/273/197 15/274/197
f 248/275/198 204/276/198 48/267/198
f 204/276/199 203/277/199 48/267/199
f 203/272/200 205/278/200 14/273/200
f 204/279/201 206/280/201 203/272/201
f 203/272/202 206/280/202 205/278/202
f 206/280/203 13/281/203 205/278/203
f 248/275/204 49/282/204 204/276/204
f 204/279/205 49/283/205 206/280/205
f 206/284/206 207/285/206 13/286/206
f 207/285/207 12/287/207 13/286/207
f 253/288/208 208/289/208 49/282/208
f 49/283/209 208/24/209 206/280/209
f 208/253/210 209/255/210 206/280/210
f 206/280/211 209/255/211 207/290/211
f 210/291/212 52/292/212 119/293/212
f 210/291/213 51/294/213 52/292/213
f 210/291/214 211/295/214 51/294/214
f 120/296/215 121/297/215 210/291/215
f 121/297/216 211/295/216 210/291/216
f 211/295/217 212/298/217 51/294/217
f 147/30/218 213/34/218 121/297/218
f 121/297/219 213/34/219 211/295/219
f 139/35/220 402/299/220 212/298/220
f 213/34/221 139/35/221 211/295/221
f 211/295/222 139/35/222 212/298/222
f 220/300/223 119/293/223 256/301/223
f 218/302/224 214/303/224 220/304/224
f 214/303/225 119/305/225 220/304/225
f 119/306/226 214/307/226 210/308/226
f 214/307/227 120/309/227 210/308/227
f 218/310/228 219/311/228 214/312/228
f 214/307/229 215/313/229 120/309/229
f 219/311/230 215/314/230 214/312/230
f 120/315/231 215/61/231 121/297/231
f 215/61/232 147/59/232 121/297/232
f 258/316/233 18/317/233 316/318/233
f 259/319/234 216/320/234 258/316/234
f 258/316/235 216/320/235 18/317/235
f 216/320/236 217/321/236 18/317/236
f 217/321/237 17/322/237 18/317/237
f 259/319/238 217/321/238 216/320/238
f 218/310/239 217/323/239 259/324/239
f 261/21/240 219/20/240 259/325/240
f 219/311/241 218/310/241 259/324/241
f 218/326/242 220/327/242 217/328/242
f 116/329/243 117/330/243 221/331/243
f 117/330/244 222/332/244 221/331/244
f 118/18/245 222/332/245 117/330/245
f 131/17/246 160/333/246 222/332/246
f 222/332/247 160/333/247 398/119/247
f 118/18/248 131/17/248 222/332/248
f 116/329/249 227/334/249 117/330/249
f 227/334/250 223/335/250 117/330/250
f 223/335/251 118/18/251 117/330/251
f 115/336/252 223/335/252 227/334/252
f 223/335/253 397/16/253 118/18/253
f 268/337/254 53/338/254 22/339/254
f 53/338/255 225/340/255 22/339/255
f 100/341/256 224/342/256 53/338/256
f 224/342/257 225/340/257 53/338/257
f 225/340/258 226/343/258 21/344/258
f 100/341/259 115/336/259 224/342/259
f 115/336/260 227/334/260 224/342/260
f 227/345/261 225/346/261 224/347/261
f 227/334/262 116/329/262 225/340/262
f 225/340/263 116/329/263 226/343/263
f 114/348/264 228/349/264 113/350/264
f 228/351/265 55/352/265 113/353/265
f 113/353/266 55/352/266 56/354/266
f 228/351/267 229/164/267 55/352/267
f 229/164/268 230/161/268 55/352/268
f 55/352/269 230/161/269 380/355/269
f 232/356/270 234/155/270 114/348/270
f 234/155/271 172/154/271 114/348/271
f 114/357/272 172/157/272 228/351/272
f 228/358/273 172/359/273 229/360/273
f 237/361/274 113/353/274 56/354/274
f 113/350/275 237/362/275 114/348/275
f 231/363/276 232/356/276 237/362/276
f 237/362/277 232/356/277 114/348/277
f 236/14/278 231/364/278 237/365/278
f 236/14/279 233/366/279 231/364/279
f 231/367/280 233/368/280 232/369/280
f 233/370/281 234/371/281 232/372/281
f 97/373/282 23/374/282 236/375/282
f 23/376/283 233/366/283 236/14/283
f 275/377/284 276/378/284 54/379/284
f 54/380/285 235/381/285 36/382/285
f 236/14/286 276/383/286 98/15/286
f 276/384/287 236/385/287 54/386/287
f 236/14/288 237/365/288 54/387/288
f 54/387/289 237/365/289 235/388/289
f 237/361/290 56/354/290 235/381/290
f 245/389/291 108/390/291 60/391/291
f 108/390/292 59/392/292 60/391/292
f 109/393/293 59/392/293 108/390/293
f 110/394/294 238/195/294 109/395/294
f 238/396/295 58/397/295 109/393/295
f 109/393/296 58/397/296 59/392/296
f 111/398/297 238/195/297 110/394/297
f 112/399/298 47/400/298 111/401/298
f 47/192/299 238/195/299 111/398/299
f 238/396/300 182/402/300 58/397/300
f 246/403/301 108/404/301 245/405/301
f 108/406/302 110/407/302 109/393/302
f 246/408/303 107/409/303 108/406/303
f 108/406/304 239/410/304 110/407/304
f 107/411/305 239/412/305 108/413/305
f 239/414/306 240/415/306 110/394/306
f 240/415/307 111/398/307 110/394/307
f 4/416/308 241/417/308 107/418/308
f 241/419/309 239/420/309 107/421/309
f 240/415/310 391/422/310 111/398/310
f 391/423/311 112/399/311 111/424/311
f 290/425/312 242/426/312 291/427/312
f 57/428/313 242/426/313 290/425/313
f 57/428/314 244/429/314 242/426/314
f 242/430/315 243/431/315 26/432/315
f 244/433/316 243/431/316 242/430/316
f 244/434/317 245/435/317 243/436/317
f 294/437/318 4/438/318 57/428/318
f 4/438/319 244/439/319 57/428/319
f 244/440/320 246/408/320 245/441/320
f 4/442/321 107/409/321 244/440/321
f 107/409/322 246/408/322 244/440/322
f 103/443/323 90/444/323 5/445/323
f 103/446/324 303/447/324 90/444/324
f 103/446/325 304/448/325 303/447/325
f 104/449/326 304/450/326 250/451/326
f 250/451/327 304/450/327 103/452/327
f 104/449/328 247/453/328 304/450/328
f 247/454/329 302/455/329 304/448/329
f 105/456/330 247/453/330 104/449/330
f 247/454/331 248/457/331 302/455/331
f 105/456/332 248/275/332 247/453/332
f 253/458/333 49/459/333 105/460/333
f 49/282/334 248/275/334 105/456/334
f 248/275/335 48/267/335 302/461/335
f 302/461/336 48/267/336 249/269/336
f 256/462/337 252/463/337 17/464/337
f 5/465/338 250/451/338 103/452/338
f 5/465/339 255/466/339 250/451/339
f 251/467/340 104/449/340 250/451/340
f 254/468/341 17/469/341 255/466/341
f 17/469/342 251/467/342 255/466/342
f 255/466/343 251/467/343 250/451/343
f 251/467/344 105/456/344 104/449/344
f 17/464/345 252/463/345 251/470/345
f 252/471/346 253/288/346 251/467/346
f 251/467/347 253/288/347 105/456/347
f 256/301/348 385/472/348 252/471/348
f 252/471/349 388/473/349 253/288/349
f 385/472/350 388/473/350 252/471/350
f 388/473/351 106/474/351 253/288/351
f 18/317/352 31/475/352 316/318/352
f 220/300/353 256/301/353 217/476/353
f 18/317/354 27/477/354 31/475/354
f 18/317/355 254/478/355 27/477/355
f 27/477/356 255/479/356 369/480/356
f 17/469/357 254/468/357 18/481/357
f 254/478/358 255/479/358 27/477/358
f 255/479/359 368/482/359 369/480/359
f 255/479/360 5/483/360 368/482/360
f 217/321/361 256/484/361 17/322/361
f 366/485/362 101/486/362 61/487/362
f 260/488/363 102/489/363 101/486/363
f 101/490/364 257/491/364 61/492/364
f 102/489/365 257/493/365 101/486/365
f 257/493/366 258/316/366 61/487/366
f 61/487/367 258/316/367 315/494/367
f 259/319/368 257/493/368 102/489/368
f 261/21/369 259/319/369 102/489/369
f 259/319/370 258/316/370 257/493/370
f 264/495/371 260/488/371 266/496/371
f 116/329/372 221/331/372 265/497/372
f 266/496/373 260/488/373 366/485/373
f 260/488/374 101/486/374 366/485/374
f 264/495/375 265/498/375 260/488/375
f 260/488/376 261/21/376 102/489/376
f 265/498/377 221/499/377 260/488/377
f 221/331/378 262/500/378 260/501/378
f 262/502/379 261/21/379 260/488/379
f 262/502/380 263/19/380 261/21/380
f 22/339/381 35/503/381 268/337/381
f 22/504/382 365/505/382 35/506/382
f 22/339/383 364/507/383 365/508/383
f 225/340/384 21/344/384 22/339/384
f 22/509/385 264/510/385 364/511/385
f 21/344/386 264/512/386 22/339/386
f 226/343/387 265/497/387 21/344/387
f 265/497/388 264/513/388 21/344/388
f 264/495/389 266/496/389 364/514/389
f 364/514/390 266/496/390 366/485/390
f 116/329/391 265/497/391 226/343/391
f 270/515/392 267/516/392 269/517/392
f 270/515/393 99/518/393 267/516/393
f 99/518/394 35/519/394 267/516/394
f 99/518/395 268/520/395 35/519/395
f 100/341/396 53/338/396 99/518/396
f 99/518/397 53/338/397 268/520/397
f 273/521/398 271/522/398 274/523/398
f 274/523/399 270/515/399 28/524/399
f 28/524/400 270/515/400 269/517/400
f 274/523/401 272/525/401 270/515/401
f 274/523/402 271/522/402 272/525/402
f 270/515/403 272/525/403 99/518/403
f 272/525/404 100/341/404 99/518/404
f 235/381/405 56/354/405 273/521/405
f 273/526/406 380/527/406 271/528/406
f 235/381/407 273/521/407 36/382/407
f 36/382/408 273/521/408 333/529/408
f 273/521/409 274/523/409 333/529/409
f 333/529/410 274/523/410 362/530/410
f 274/531/411 28/532/411 362/533/411
f 98/15/412 276/383/412 278/534/412
f 277/535/413 275/536/413 96/537/413
f 275/536/414 334/538/414 96/537/414
f 276/383/415 277/535/415 278/534/415
f 276/383/416 275/536/416 277/535/416
f 275/539/417 36/382/417 334/540/417
f 54/387/418 36/541/418 275/536/418
f 286/542/419 277/535/419 96/537/419
f 60/543/420 280/544/420 283/545/420
f 286/546/421 278/547/421 277/548/421
f 284/549/422 285/550/422 286/551/422
f 286/552/423 285/553/423 278/554/423
f 285/555/424 279/556/424 278/534/424
f 278/534/425 279/556/425 98/15/425
f 283/557/426 280/558/426 285/555/426
f 280/558/427 279/556/427 285/555/427
f 280/558/428 281/559/428 279/556/428
f 279/556/429 378/560/429 98/15/429
f 378/560/430 97/13/430 98/15/430
f 242/561/431 282/562/431 291/427/431
f 245/389/432 60/391/432 243/563/432
f 291/427/433 282/562/433 38/564/433
f 242/565/434 26/566/434 282/567/434
f 282/562/435 29/568/435 360/569/435
f 26/570/436 284/571/436 282/572/436
f 284/571/437 29/573/437 282/572/437
f 243/431/438 283/574/438 26/432/438
f 243/575/439 60/543/439 283/545/439
f 283/557/440 285/555/440 26/570/440
f 26/576/441 285/577/441 284/578/441
f 284/571/442 286/542/442 29/573/442
f 286/542/443 75/579/443 29/573/443
f 286/580/444 96/581/444 75/582/444
f 94/583/445 344/584/445 348/585/445
f 95/586/446 288/587/446 94/583/446
f 94/583/447 287/588/447 344/584/447
f 94/583/448 288/587/448 287/588/448
f 95/586/449 289/589/449 288/587/449
f 289/589/450 290/425/450 288/587/450
f 290/425/451 287/588/451 288/587/451
f 294/437/452 289/589/452 95/586/452
f 290/425/453 291/427/453 287/588/453
f 291/427/454 38/590/454 287/588/454
f 294/437/455 57/428/455 289/589/455
f 289/589/456 57/428/456 290/425/456
f 298/591/457 94/583/457 348/585/457
f 298/592/458 93/593/458 94/594/458
f 93/595/459 292/596/459 94/597/459
f 92/598/460 292/599/460 93/600/460
f 292/601/461 95/602/461 94/603/461
f 299/604/462 292/599/462 92/598/462
f 299/604/463 293/605/463 292/599/463
f 292/599/464 293/605/464 95/586/464
f 299/604/465 91/11/465 293/605/465
f 293/605/466 294/437/466 95/586/466
f 293/605/467 371/606/467 294/437/467
f 371/606/468 374/607/468 294/437/468
f 374/607/469 4/438/469 294/437/469
f 14/273/470 295/608/470 15/274/470
f 295/609/471 357/610/471 15/611/471
f 14/273/472 296/612/472 295/608/472
f 296/612/473 297/613/473 295/608/473
f 205/278/474 296/612/474 14/273/474
f 295/614/475 297/615/475 357/616/475
f 297/615/476 358/617/476 357/616/476
f 296/612/477 298/592/477 297/613/477
f 297/613/478 298/592/478 358/618/478
f 12/287/479 299/604/479 13/286/479
f 91/11/480 299/604/480 12/287/480
f 299/604/481 92/598/481 13/286/481
f 13/281/482 92/619/482 205/278/482
f 92/619/483 93/593/483 205/278/483
f 205/278/484 93/593/484 296/612/484
f 296/612/485 93/593/485 298/592/485
f 87/620/486 300/621/486 86/622/486
f 88/623/487 89/624/487 87/625/487
f 87/626/488 301/627/488 300/628/488
f 87/626/489 302/461/489 301/627/489
f 89/629/490 303/630/490 87/631/490
f 303/630/491 304/632/491 87/633/491
f 304/448/492 302/455/492 87/634/492
f 90/635/493 303/636/493 89/637/493
f 302/638/494 249/639/494 301/640/494
f 301/641/495 249/1/495 64/3/495
f 311/642/496 83/643/496 312/644/496
f 313/645/497 84/646/497 86/647/497
f 84/648/498 87/620/498 86/622/498
f 84/648/499 88/649/499 87/620/499
f 84/648/500 305/650/500 88/649/500
f 305/651/501 89/624/501 88/623/501
f 83/652/502 306/653/502 84/646/502
f 306/653/503 305/651/503 84/646/503
f 305/654/504 90/655/504 89/656/504
f 63/657/505 6/658/505 311/642/505
f 311/642/506 85/659/506 83/643/506
f 83/643/507 85/659/507 306/660/507
f 306/660/508 85/659/508 305/654/508
f 85/661/509 368/662/509 305/663/509
f 305/654/510 368/482/510 90/655/510
f 368/482/511 5/483/511 90/655/511
f 321/664/512 307/665/512 33/666/512
f 321/667/513 62/668/513 307/669/513
f 62/668/514 308/670/514 307/669/514
f 307/669/515 308/670/515 32/671/515
f 309/672/516 310/673/516 308/674/516
f 63/675/517 311/676/517 62/677/517
f 311/642/518 312/644/518 62/678/518
f 62/679/519 312/680/519 308/681/519
f 308/681/520 312/680/520 309/682/520
f 309/683/521 313/645/521 310/684/521
f 312/685/522 83/652/522 309/683/522
f 83/652/523 84/646/523 309/683/523
f 309/683/524 84/646/524 313/645/524
f 82/686/525 6/658/525 323/687/525
f 317/688/526 314/689/526 82/686/526
f 82/690/527 314/691/527 6/692/527
f 6/693/528 314/694/528 30/695/528
f 317/688/529 315/494/529 314/689/529
f 314/694/530 31/475/530 30/695/530
f 318/696/531 315/494/531 317/688/531
f 314/694/532 316/318/532 31/475/532
f 318/696/533 61/487/533 315/494/533
f 314/694/534 315/494/534 316/318/534
f 366/485/535 61/487/535 318/696/535
f 258/316/536 316/318/536 315/494/536
f 330/697/537 81/698/537 65/699/537
f 81/700/538 82/701/538 323/702/538
f 322/703/539 81/700/539 323/702/539
f 81/704/540 317/705/540 82/706/540
f 81/707/541 318/708/541 317/709/541
f 330/697/542 319/710/542 81/698/542
f 81/711/543 320/712/543 318/696/543
f 319/713/544 320/714/544 81/715/544
f 320/712/545 366/485/545 318/696/545
f 65/716/546 321/717/546 1/718/546
f 1/718/547 321/717/547 33/719/547
f 65/720/548 322/721/548 321/664/548
f 322/703/549 62/668/549 321/667/549
f 322/703/550 63/722/550 62/668/550
f 322/703/551 323/702/551 63/722/551
f 65/723/552 81/700/552 322/703/552
f 323/687/553 6/658/553 63/657/553
f 325/724/554 324/725/554 76/726/554
f 76/726/555 324/725/555 34/727/555
f 78/728/556 325/729/556 77/730/556
f 78/731/557 324/725/557 325/724/557
f 80/732/558 267/733/558 79/734/558
f 79/734/559 267/733/559 78/735/559
f 78/731/560 267/736/560 324/725/560
f 267/737/561 35/738/561 324/739/561
f 269/517/562 267/516/562 80/740/562
f 67/741/563 326/742/563 329/743/563
f 76/744/564 331/745/564 325/746/564
f 331/747/565 77/748/565 325/724/565
f 331/747/566 78/731/566 77/748/566
f 329/743/567 326/742/567 331/747/567
f 326/742/568 78/731/568 331/747/568
f 326/749/569 79/750/569 78/751/569
f 67/752/570 73/753/570 326/754/570
f 79/755/571 327/756/571 80/6/571
f 326/742/572 327/756/572 79/755/572
f 327/756/573 28/4/573 80/6/573
f 339/757/574 328/758/574 66/759/574
f 66/760/575 328/761/575 1/762/575
f 328/761/576 65/720/576 1/762/576
f 67/741/577 329/743/577 339/757/577
f 339/757/578 329/743/578 328/758/578
f 328/763/579 330/764/579 65/699/579
f 329/743/580 331/747/580 328/758/580
f 328/758/581 331/747/581 330/765/581
f 331/766/582 76/767/582 330/764/582
f 74/768/583 332/769/583 73/770/583
f 332/769/584 333/771/584 361/772/584
f 75/579/585 332/769/585 74/768/585
f 332/773/586 334/774/586 333/775/586
f 334/540/587 36/382/587 333/776/587
f 75/579/588 96/537/588 332/769/588
f 96/537/589 334/538/589 332/769/589
f 335/777/590 74/778/590 73/779/590
f 335/777/591 336/780/591 74/778/591
f 72/781/592 336/780/592 335/777/592
f 72/781/593 337/782/593 336/780/593
f 72/781/594 37/783/594 337/782/594
f 336/780/595 75/784/595 74/778/595
f 349/785/596 66/759/596 1/786/596
f 349/785/597 338/787/597 66/759/597
f 338/787/598 339/757/598 66/759/598
f 340/788/599 339/757/599 338/787/599
f 341/789/600 339/757/600 340/788/600
f 339/790/601 335/791/601 67/792/601
f 340/788/602 72/793/602 341/789/602
f 341/789/603 72/793/603 339/757/603
f 72/793/604 335/794/604 339/757/604
f 335/791/605 73/795/605 67/792/605
f 70/796/606 37/797/606 340/788/606
f 70/798/607 342/799/607 37/800/607
f 345/801/608 71/802/608 70/803/608
f 71/802/609 343/804/609 70/803/609
f 70/805/610 343/806/610 342/807/610
f 343/808/611 38/809/611 342/810/611
f 344/584/612 343/806/612 71/811/612
f 287/812/613 38/809/613 343/808/613
f 348/585/614 344/584/614 71/813/614
f 344/584/615 287/588/615 343/806/615
f 352/814/616 347/815/616 353/816/616
f 354/817/617 345/818/617 340/788/617
f 340/788/618 345/818/618 70/796/618
f 353/819/619 345/820/619 354/821/619
f 353/819/620 346/822/620 345/820/620
f 346/823/621 71/824/621 345/825/621
f 353/816/622 347/815/622 346/826/622
f 346/823/623 348/827/623 71/824/623
f 352/814/624 68/828/624 347/815/624
f 347/815/625 348/829/625 346/826/625
f 68/828/626 356/830/626 347/815/626
f 356/831/627 69/832/627 347/833/627
f 347/833/628 69/832/628 348/834/628
f 69/835/629 298/836/629 348/837/629
f 307/838/630 350/839/630 33/840/630
f 310/841/631 32/671/631 308/670/631
f 33/842/632 349/785/632 1/786/632
f 350/843/633 349/785/633 33/842/633
f 32/671/634 351/844/634 307/669/634
f 307/838/635 351/845/635 350/839/635
f 350/843/636 338/787/636 349/785/636
f 310/841/637 352/814/637 32/671/637
f 352/814/638 353/816/638 32/671/638
f 32/671/639 353/816/639 351/844/639
f 351/845/640 354/846/640 350/839/640
f 350/843/641 354/817/641 338/787/641
f 354/817/642 340/788/642 338/787/642
f 313/645/643 68/847/643 310/684/643
f 310/684/644 68/847/644 352/848/644
f 353/849/645 354/850/645 351/851/645
f 86/647/646 68/847/646 313/645/646
f 300/852/647 355/853/647 86/647/647
f 86/647/648 355/853/648 68/847/648
f 355/853/649 356/854/649 68/847/649
f 300/852/650 301/641/650 355/853/650
f 355/855/651 357/856/651 356/831/651
f 64/3/652 15/2/652 301/641/652
f 301/641/653 15/2/653 355/853/653
f 357/856/654 358/618/654 356/831/654
f 358/618/655 69/832/655 356/831/655
f 15/611/656 357/610/656 355/857/656
f 358/618/657 298/592/657 69/832/657
f 37/797/658 72/793/658 340/788/658
f 342/858/659 359/859/659 37/860/659
f 359/861/660 337/782/660 37/862/660
f 342/810/661 38/809/661 359/863/661
f 38/564/662 360/569/662 359/864/662
f 360/569/663 337/782/663 359/861/663
f 337/865/664 75/579/664 336/866/664
f 38/564/665 282/562/665 360/569/665
f 360/569/666 29/568/666 337/782/666
f 337/865/667 29/573/667 75/579/667
f 332/769/668 361/867/668 73/770/668
f 361/868/669 362/869/669 73/870/669
f 362/871/670 326/872/670 73/873/670
f 333/776/671 362/530/671 361/874/671
f 362/875/672 327/756/672 326/742/672
f 362/876/673 28/4/673 327/756/673
f 76/877/674 34/878/674 319/8/674
f 34/879/675 363/880/675 319/881/675
f 363/882/676 320/883/676 319/884/676
f 324/725/677 35/506/677 34/727/677
f 35/506/678 363/882/678 34/727/678
f 35/506/679 364/885/679 363/882/679
f 35/506/680 365/505/680 364/885/680
f 364/514/681 366/485/681 363/886/681
f 363/886/682 366/485/682 320/712/682
f 30/695/683 367/887/683 6/658/683
f 367/887/684 311/642/684 6/658/684
f 367/887/685 85/659/685 311/642/685
f 30/888/686 368/662/686 367/889/686
f 367/889/687 368/662/687 85/661/687
f 31/475/688 369/480/688 30/695/688
f 30/695/689 369/480/689 368/482/689
f 31/475/690 27/477/690 369/480/690
f 193/238/691 370/890/691 192/891/691
f 3/10/692 50/230/692 91/11/692
f 50/230/693 370/892/693 91/11/693
f 370/892/694 293/605/694 91/11/694
f 192/229/695 370/892/695 50/230/695
f 370/892/696 371/606/696 293/605/696
f 193/239/697 372/893/697 370/894/697
f 372/893/698 373/895/698 370/894/698
f 370/892/699 373/896/699 371/606/699
f 372/897/700 374/607/700 373/896/700
f 373/896/701 374/607/701 371/606/701
f 193/239/702 196/101/702 372/893/702
f 372/893/703 375/898/703 374/899/703
f 196/222/704 25/221/704 372/900/704
f 25/901/705 375/898/705 372/893/705
f 60/391/706 376/902/706 280/903/706
f 376/904/707 281/905/707 280/544/707
f 59/392/708 376/902/708 60/391/708
f 376/902/709 279/556/709 281/559/709
f 58/397/710 377/906/710 59/392/710
f 59/392/711 377/906/711 376/902/711
f 377/906/712 378/560/712 376/902/712
f 376/902/713 378/560/713 279/556/713
f 182/402/714 11/907/714 58/397/714
f 11/907/715 24/908/715 58/397/715
f 24/908/716 377/906/716 58/397/716
f 377/909/717 379/910/717 378/911/717
f 379/910/718 97/912/718 378/911/718
f 24/908/719 379/913/719 377/906/719
f 379/913/720 23/376/720 97/13/720
f 56/354/721 380/914/721 273/521/721
f 55/352/722 380/355/722 56/354/722
f 380/527/723 381/915/723 271/528/723
f 230/916/724 381/915/724 380/527/724
f 230/916/725 42/917/725 381/915/725
f 381/918/726 20/146/726 271/522/726
f 271/522/727 20/146/727 272/525/727
f 20/146/728 19/919/728 272/525/728
f 272/525/729 115/336/729 100/341/729
f 398/119/730 382/920/730 222/332/730
f 222/332/731 382/920/731 221/331/731
f 382/920/732 262/500/732 221/331/732
f 398/119/733 383/921/733 382/920/733
f 382/920/734 384/922/734 262/500/734
f 384/922/735 263/923/735 262/500/735
f 382/924/736 383/925/736 384/926/736
f 398/119/737 16/927/737 383/921/737
f 402/928/738 389/929/738 212/930/738
f 119/293/739 385/472/739 256/301/739
f 119/293/740 52/292/740 385/472/740
f 51/294/741 386/931/741 52/292/741
f 386/931/742 387/932/742 52/292/742
f 52/292/743 387/932/743 385/472/743
f 387/932/744 388/473/744 385/472/744
f 212/933/745 389/934/745 51/935/745
f 389/936/746 390/937/746 51/294/746
f 51/294/747 390/937/747 386/931/747
f 374/607/748 241/938/748 4/438/748
f 374/899/749 375/898/749 241/939/749
f 375/898/750 239/414/750 241/939/750
f 25/901/751 391/422/751 375/898/751
f 375/898/752 391/422/752 239/414/752
f 391/422/753 240/415/753 239/414/753
f 25/901/754 190/228/754 391/422/754
f 190/228/755 112/193/755 391/422/755
f 11/907/756 395/940/756 24/908/756
f 379/913/757 392/941/757 23/376/757
f 23/376/758 392/941/758 233/366/758
f 393/942/759 392/941/759 379/913/759
f 379/913/760 24/908/760 393/942/760
f 393/942/761 394/943/761 392/941/761
f 392/941/762 394/943/762 233/366/762
f 394/944/763 234/945/763 233/946/763
f 24/908/764 395/940/764 393/942/764
f 394/944/765 396/190/765 234/945/765
f 395/188/766 396/190/766 393/947/766
f 393/947/767 396/190/767 394/944/767
f 396/190/768 179/171/768 234/945/768
f 395/948/769 177/949/769 396/950/769
f 19/919/770 115/336/770 272/525/770
f 19/919/771 223/335/771 115/336/771
f 19/919/772 397/16/772 223/335/772
f 42/951/773 20/146/773 381/918/773
f 20/146/774 397/16/774 19/919/774
f 384/952/775 219/311/775 263/953/775
f 384/954/776 383/955/776 219/956/776
f 16/957/777 215/314/777 383/958/777
f 383/958/778 215/314/778 219/311/778
f 398/119/779 162/51/779 16/927/779
f 162/51/780 7/959/780 16/960/780
f 16/957/781 7/961/781 215/314/781
f 388/962/782 199/23/782 106/22/782
f 386/931/783 399/963/783 387/932/783
f 388/962/784 387/964/784 199/23/784
f 399/965/785 199/966/785 387/967/785
f 386/931/786 390/937/786 399/963/786
f 389/936/787 399/968/787 390/937/787
f 400/969/788 401/970/788 399/264/788
f 399/264/789 401/970/789 201/260/789
f 389/936/790 402/971/790 399/968/790
f 402/971/791 400/972/791 399/968/791
f 8/38/792 400/972/792 402/971/792
f 149/66/793 40/74/793 41/67/793
f 40/74/794 187/215/794 41/67/794
f 40/74/795 404/973/795 187/215/795
f 404/974/796 403/975/796 187/976/796
f 187/976/797 403/975/797 186/977/797
f 403/975/798 405/978/798 186/977/798
f 403/184/799 126/175/799 405/183/799
f 404/979/800 406/980/800 403/981/800
f 40/74/801 10/982/801 404/973/801
f 10/983/802 407/984/802 404/985/802
f 404/986/803 407/987/803 406/988/803
f 407/989/804 408/181/804 406/180/804
f 40/74/805 412/79/805 10/982/805
f 10/990/806 409/991/806 407/992/806
f 407/989/807 409/993/807 408/181/807
f 408/181/808 409/993/808 129/138/808
f 409/993/809 410/994/809 129/138/809
f 410/994/810 411/139/810 129/138/810
f 409/993/811 412/79/811 410/994/811
f 10/982/812 412/79/812 409/993/812
f 410/994/813 413/995/813 411/139/813
f 419/996/814 410/997/814 412/998/814
f 413/995/815 130/143/815 411/139/815
f 401/999/816 414/1000/816 202/1001/816
f 202/1001/817 414/1000/817 2/1002/817
f 414/1000/818 155/1003/818 2/1002/818
f 400/969/819 414/1004/819 401/970/819
f 8/1005/820 415/1006/820 400/1007/820
f 400/972/821 415/36/821 414/1008/821
f 414/1008/822 416/37/822 155/1009/822
f 155/1009/823 416/37/823 153/88/823
f 414/1008/824 140/32/824 416/37/824
f 415/36/825 140/32/825 414/1008/825
f 413/995/826 417/1010/826 130/143/826
f 410/1011/827 419/1012/827 413/1013/827
f 413/1014/828 418/1015/828 417/1016/828
f 413/1014/829 420/1017/829 418/1015/829
f 419/1018/830 420/1019/830 413/1020/830
f 420/1017/831 144/1021/831 418/1015/831
f 412/79/832 151/76/832 419/1022/832
f 151/1023/833 420/1019/833 419/1018/833
f 420/1024/834 136/1025/834 144/1026/834
f 151/76/835 136/1025/835 420/1024/835
f 136/75/836 416/37/836 144/33/836
